<svg width="58" height="43" viewBox="0 0 58 43" fill="none" xmlns="http://www.w3.org/2000/svg">
<path d="M48.6387 3.65234C45.7578 4.87305 43.2432 6.72852 41.0947 9.21875C38.9463 11.709 37.6523 14.248 37.2129 16.8359C36.9688 18.2031 36.8467 19.375 36.8467 20.3516C36.8467 21.4746 36.9688 22.4023 37.2129 23.1348C39.5078 20.7422 42.4131 19.5459 45.9287 19.5459C49.4443 19.5459 52.3008 20.5713 54.498 22.6221C56.6953 24.6729 57.7939 27.5049 57.7939 31.1182C57.7939 34.5361 56.6221 37.3193 54.2783 39.4678C51.9834 41.6162 49.0537 42.6904 45.4893 42.6904C40.6064 42.6904 37.042 40.9326 34.7959 37.417C33.7705 35.9033 32.9648 34.0479 32.3789 31.8506C31.793 29.6045 31.5 27.3096 31.5 24.9658C31.5 19.8389 32.8184 15.1514 35.4551 10.9033C38.0918 6.65527 42.0225 3.33496 47.2471 0.942383L48.6387 3.65234ZM17.7305 3.65234C14.8496 4.87305 12.335 6.72852 10.1865 9.21875C8.03809 11.709 6.74414 14.248 6.30469 16.8359C6.06055 18.2031 5.93848 19.375 5.93848 20.3516C5.93848 21.4746 6.06055 22.4023 6.30469 23.1348C8.59961 20.7422 11.5049 19.5459 15.0205 19.5459C18.5361 19.5459 21.3926 20.5713 23.5898 22.6221C25.7871 24.6729 26.8857 27.5049 26.8857 31.1182C26.8857 34.5361 25.7139 37.3193 23.3701 39.4678C21.0752 41.6162 18.1455 42.6904 14.5811 42.6904C9.69824 42.6904 6.13379 40.9326 3.8877 37.417C2.8623 35.9033 2.05664 34.0479 1.4707 31.8506C0.884766 29.6045 0.591797 27.3096 0.591797 24.9658C0.591797 19.8389 1.91016 15.1514 4.54688 10.9033C7.18359 6.65527 11.1143 3.33496 16.3389 0.942383L17.7305 3.65234Z" fill="white"/>
</svg>
