<svg width="149" height="49" viewBox="0 0 149 49" fill="none" xmlns="http://www.w3.org/2000/svg">
<path d="M148.295 7.70916C145.792 6.65313 143.243 5.83054 140.66 5.1858C138.089 4.50772 135.484 4.02973 132.868 3.69625C131.565 3.49616 130.24 3.4517 128.938 3.29607C127.624 3.26272 126.322 3.12933 125.008 3.18491C124.357 3.19602 123.694 3.19602 123.043 3.18491C122.392 3.18491 121.729 3.25161 121.078 3.27384C120.427 3.3183 119.764 3.32942 119.113 3.39612L117.159 3.62955C114.543 3.84076 112.005 4.37433 109.468 5.03018C106.896 5.64156 104.46 6.50862 101.866 7.37567C99.205 8.25385 96.3193 8.78742 93.4224 8.38724C91.9964 8.1538 90.5592 7.65358 89.4251 6.76429C88.2686 5.88612 87.4826 4.68558 86.9998 3.42946C87.797 4.52995 88.7851 5.43036 89.9191 5.98616C91.0532 6.54197 92.2996 6.7754 93.5459 6.76429C96.0611 6.76429 98.5538 5.96393 100.912 4.96348C103.315 3.82964 105.953 2.82919 108.581 2.0066C111.231 1.21736 113.993 0.617092 116.755 0.328074C122.268 -0.249963 127.905 -0.11657 133.306 1.15066C136.012 1.71758 138.65 2.58464 141.177 3.65178C143.714 4.74116 146.162 6.00839 148.295 7.70916Z" fill="#FEBA66"/>
<path d="M-0.000244141 40.3359C2.95282 41.5587 5.96202 42.5035 9.02736 43.2261C12.0703 43.982 15.1693 44.5155 18.2683 44.849C19.8178 45.0602 21.3786 45.0824 22.9169 45.227C24.4776 45.2381 26.0271 45.3604 27.5766 45.2714L29.9009 45.2158C30.6757 45.2047 31.4504 45.1047 32.2252 45.0602C32.9999 44.9935 33.7747 44.9602 34.5382 44.8601L36.84 44.5378C39.9279 44.2043 42.9258 43.4929 45.9126 42.6369C48.933 41.8143 51.785 40.7249 54.8054 39.5911C57.8932 38.4684 61.2393 37.7347 64.6303 38.0904C66.3033 38.3016 67.9876 38.8352 69.3574 39.8134C70.7385 40.7805 71.7266 42.1589 72.3554 43.604C71.4122 42.3145 70.2332 41.2585 68.8746 40.6027C67.516 39.9468 66.0226 39.68 64.5404 39.7245C61.5425 39.769 58.5894 40.7583 55.816 42.0033C52.9977 43.3817 49.9436 44.6267 46.867 45.6605C43.7679 46.6498 40.5679 47.4391 37.3229 47.8392C30.8665 48.6841 24.253 48.6952 17.8753 47.4168C14.6752 46.8388 11.5537 45.9384 8.53331 44.7934C5.53533 43.604 2.60474 42.2145 -0.000244141 40.3359Z" fill="#FEBA66"/>
<path d="M3.41976 30L1.19976 27.78V17.48L3.41976 15.26H10.3798L12.3998 17.28L10.8198 18.88L9.35976 17.46H4.57976L3.69976 18.34L3.71976 26.92L4.57976 27.8H9.53976L10.9998 26.36L12.5798 27.98L10.5598 30H3.41976ZM16.608 30L14.388 27.78V19.54H16.808V27.2L17.648 28.12H19.668L21.788 26.04V19.54H24.208V30H21.788V28.5L20.268 30H16.608ZM27.2029 30V19.54H29.6229V21.4L31.5029 19.54H33.8629V21.96H31.5229L29.6229 23.86V30H27.2029ZM35.5623 30V19.54H37.9823V21.4L39.8623 19.54H42.2223V21.96H39.8823L37.9823 23.86V30H35.5623ZM45.7268 30L43.5068 27.78V21.78L45.7268 19.54H50.5268L52.7468 21.78V25.66H45.9268V27.14L46.8068 28.02H52.5668V30H45.7268ZM45.9268 23.8H50.3268V22.3L49.4468 21.42H46.8068L45.9268 22.3V23.8ZM55.5427 30V19.54H57.9627V21.4L59.8427 19.54H63.5827L65.8027 21.78V30H63.3827V22.34L62.5427 21.42H60.4227L57.9627 23.86V30H55.5427ZM70.7268 30L68.5068 27.78V21.78L70.7268 19.54H75.7268L77.7268 21.5V23.46H75.3068V22.3L74.4268 21.42H71.8068L70.9268 22.3V27.14L71.8068 28.02H77.6468V30H70.7268ZM81.6205 33.74L83.4605 29.4H82.5405L78.5005 19.54H81.1605L83.9605 27.02H84.4405L87.2405 19.54H89.9005L84.0605 33.74H81.6205ZM98.4235 30L95.0435 15.26H97.7035L100.064 27.62H100.544L102.904 15.26H105.144L107.504 27.62H107.984L110.344 15.26H113.004L109.604 30H105.824L104.024 20.7L102.224 30H98.4235ZM115.359 30L113.139 27.78V25.52L115.359 23.28H120.419V22.4L119.539 21.52H114.519V19.54H120.619L122.839 21.78V30H120.419V28.48L118.879 30H115.359ZM116.439 28.14L118.319 28.12L120.419 26.02V25.16H116.439L115.559 26.04V27.24L116.439 28.14ZM128.41 30L123.93 19.54H126.59L129.61 27.62H130.09L133.11 19.54H135.77L131.27 30H128.41ZM138.989 30L136.769 27.78V21.78L138.989 19.54H143.789L146.009 21.78V25.66H139.189V27.14L140.069 28.02H145.829V30H138.989ZM139.189 23.8H143.589V22.3L142.709 21.42H140.069L139.189 22.3V23.8Z" fill="#263238"/>
</svg>
