<svg width="116" height="64" viewBox="0 0 116 64" fill="none" xmlns="http://www.w3.org/2000/svg">
<path d="M30.9272 15L2 29V36H114V1L65.7881 23L30.9272 15Z" fill="url(#paint0_linear_88_375)"/>
<path d="M1 29L30.4437 14.7544L65.9272 22.614L115 1" stroke="#4C56CC" stroke-linecap="round"/>
<path d="M21.3945 52.2295C21.3945 54.1299 21.9277 55.5312 22.9941 56.4336C24.0674 57.3359 25.4072 57.7871 27.0137 57.7871C28.6133 57.7871 29.9463 57.3359 31.0127 56.4336C32.0791 55.5312 32.6123 54.1299 32.6123 52.2295V42.5703H29.895V52.3833C29.895 53.5522 29.6318 54.3896 29.1055 54.8955C28.5791 55.3945 27.8853 55.644 27.0239 55.644C26.1558 55.644 25.4585 55.3945 24.9321 54.8955C24.4126 54.3896 24.1528 53.5522 24.1528 52.3833V42.5703H21.3945V52.2295ZM35.3296 61.7964H38.0059V56.3721C38.293 56.7822 38.6997 57.1069 39.2261 57.3462C39.7593 57.5854 40.3745 57.7051 41.0718 57.7051C42.4048 57.7051 43.478 57.2163 44.2915 56.2388C45.105 55.2544 45.5117 53.9624 45.5117 52.3628V52.0347C45.5117 50.4282 45.1016 49.1396 44.2812 48.1689C43.4609 47.1914 42.374 46.7026 41.0205 46.7026C40.3232 46.7026 39.6978 46.8462 39.144 47.1333C38.5903 47.4136 38.1904 47.7656 37.9443 48.1895H37.8931L37.8315 46.918H35.3296V61.7964ZM38.0059 54.0957V50.2915C38.1836 49.8813 38.4707 49.5225 38.8672 49.2148C39.2705 48.9004 39.7627 48.7432 40.3438 48.7432C41.1777 48.7432 41.793 49.0337 42.1895 49.6147C42.5859 50.189 42.7842 50.9614 42.7842 51.9321V52.4653C42.7842 53.436 42.5859 54.2153 42.1895 54.8032C41.793 55.3843 41.1812 55.6748 40.354 55.6748C39.7866 55.6748 39.2944 55.5176 38.8774 55.2031C38.4673 54.8818 38.1768 54.5127 38.0059 54.0957ZM52.0537 53.3472C52.0537 54.7759 52.5732 55.873 53.6123 56.6387C54.6582 57.4043 56.0186 57.7871 57.6934 57.7871C59.375 57.7871 60.7183 57.3975 61.7231 56.6182C62.7349 55.832 63.2407 54.7622 63.2407 53.4087C63.2407 52.1167 62.8477 51.1187 62.0615 50.4146C61.2754 49.7036 60.1133 49.1294 58.5752 48.6919C57.126 48.2886 56.1792 47.9331 55.7349 47.6255C55.2905 47.3179 55.0684 46.8838 55.0684 46.3232C55.0684 45.7354 55.2734 45.2705 55.6836 44.9287C56.0938 44.5869 56.7329 44.416 57.6011 44.416C58.4692 44.416 59.1221 44.6245 59.5596 45.0415C60.0039 45.4517 60.2261 46.002 60.2261 46.6924V46.918H62.9434V46.6411C62.9434 45.3286 62.4546 44.2759 61.4771 43.4829C60.5063 42.6831 59.2109 42.2832 57.5908 42.2832C55.9639 42.2832 54.6753 42.6729 53.7251 43.4521C52.7749 44.2246 52.2998 45.2432 52.2998 46.5078C52.3066 47.7109 52.686 48.6509 53.438 49.3276C54.1968 50.0044 55.3589 50.5649 56.9243 51.0093C58.3667 51.4126 59.3203 51.7886 59.7852 52.1372C60.25 52.4858 60.4824 52.9678 60.4824 53.583C60.4824 54.2119 60.2397 54.7178 59.7544 55.1006C59.2759 55.4834 58.5854 55.6748 57.6831 55.6748C56.7808 55.6748 56.0767 55.4766 55.5708 55.0801C55.0649 54.6836 54.812 54.0889 54.812 53.2959V53.0396H52.0537V53.3472ZM65.2505 57.5H67.9268V50.353C68.125 49.8745 68.4087 49.4951 68.7778 49.2148C69.147 48.9346 69.5845 48.7944 70.0903 48.7944C70.6714 48.7944 71.126 48.9517 71.4541 49.2661C71.7822 49.5806 71.9463 50.1069 71.9463 50.8452V57.5H74.6123V50.6812C74.6123 49.2661 74.291 48.251 73.6484 47.6357C73.0127 47.0137 72.1924 46.7026 71.1875 46.7026C70.4355 46.7026 69.7861 46.8496 69.2393 47.1436C68.6924 47.4375 68.2549 47.8203 67.9268 48.292V41.9038H65.2505V57.5ZM76.6221 52.3628C76.6221 54.0034 77.1108 55.3193 78.0884 56.3105C79.0728 57.3018 80.3647 57.7974 81.9644 57.7974C83.564 57.7974 84.8525 57.3018 85.8301 56.3105C86.8076 55.3193 87.2964 54.0034 87.2964 52.3628V52.0347C87.2964 50.4009 86.8076 49.0884 85.8301 48.0972C84.8525 47.106 83.564 46.6104 81.9644 46.6104C80.3647 46.6104 79.0728 47.106 78.0884 48.0972C77.1108 49.0884 76.6221 50.4009 76.6221 52.0347V52.3628ZM79.3496 51.9321C79.3496 50.9272 79.5752 50.1309 80.0264 49.543C80.4775 48.9551 81.1235 48.6611 81.9644 48.6611C82.7983 48.6611 83.4409 48.9551 83.8921 49.543C84.3433 50.1309 84.5688 50.9272 84.5688 51.9321V52.4756C84.5688 53.4805 84.3467 54.2769 83.9023 54.8647C83.458 55.4526 82.812 55.7466 81.9644 55.7466C81.1167 55.7466 80.4673 55.4526 80.0161 54.8647C79.5718 54.2769 79.3496 53.4805 79.3496 52.4756V51.9321ZM88.0552 48.8867H94.5254V46.918H88.0552V48.8867ZM89.7471 54.4956C89.7471 55.6372 90.0239 56.4712 90.5776 56.9976C91.1313 57.5239 91.8765 57.7871 92.813 57.7871C93.1753 57.7871 93.5034 57.7563 93.7974 57.6948C94.0981 57.6333 94.3306 57.5649 94.4946 57.4897V55.521C94.3374 55.5825 94.1733 55.6338 94.0024 55.6748C93.8384 55.709 93.6743 55.7261 93.5103 55.7261C93.1479 55.7261 92.8711 55.6304 92.6797 55.439C92.4951 55.2476 92.4028 54.8887 92.4028 54.3623V44.2109H89.7676V47.605L89.7471 47.8818V54.4956Z" fill="#263238"/>
<defs>
<linearGradient id="paint0_linear_88_375" x1="58" y1="1" x2="57.8315" y2="35.501" gradientUnits="userSpaceOnUse">
<stop stop-color="#7782FF"/>
<stop offset="1" stop-color="#7782FF" stop-opacity="0"/>
</linearGradient>
</defs>
</svg>
