<svg width="113" height="35" viewBox="0 0 113 35" fill="none" xmlns="http://www.w3.org/2000/svg">
<path d="M31.7646 16.5283C31.8262 15.9307 31.8569 15.2451 31.8569 14.4717C31.8569 13.2412 31.791 11.7119 31.6592 9.88379C33.3027 9.93652 36.0845 9.96289 40.0044 9.96289C43.9243 9.96289 46.6973 9.93652 48.3232 9.88379C48.1914 11.7119 48.1255 13.2412 48.1255 14.4717C48.1255 15.2451 48.1562 15.9307 48.2178 16.5283H47.5981C47.2993 15.0254 46.9346 13.8389 46.5039 12.9688C46.0732 12.0898 45.5547 11.4614 44.9482 11.0835C44.3506 10.6968 43.6211 10.5034 42.7598 10.5034H42.1401V25.9282C42.1401 26.6753 42.2148 27.2202 42.3643 27.563C42.5225 27.9058 42.7949 28.1387 43.1816 28.2617C43.5771 28.3848 44.1924 28.4507 45.0273 28.4595V29C42.7598 28.9473 41.0503 28.9209 39.8989 28.9209C38.7651 28.9209 37.1172 28.9473 34.9551 29V28.4595C35.7988 28.4507 36.4141 28.3848 36.8008 28.2617C37.1963 28.1387 37.4688 27.9058 37.6182 27.563C37.7676 27.2202 37.8423 26.6753 37.8423 25.9282V10.5034H37.249C36.3789 10.5034 35.6406 10.6924 35.0342 11.0703C34.4365 11.4482 33.9224 12.0767 33.4917 12.9556C33.061 13.8257 32.6919 15.0166 32.3843 16.5283H31.7646ZM56.4312 17.6094C56.4312 16.8623 56.251 16.2734 55.8906 15.8428C55.5391 15.4121 54.9854 15.1968 54.2295 15.1968C53.8779 15.1968 53.5264 15.2539 53.1748 15.3682C52.8232 15.4736 52.5332 15.6362 52.3047 15.856C52.8057 16.0229 53.1968 16.2866 53.478 16.647C53.7593 16.9985 53.8999 17.4424 53.8999 17.9785C53.8999 18.3477 53.8076 18.6816 53.623 18.9805C53.4473 19.2705 53.1924 19.5034 52.8584 19.6792C52.5244 19.8462 52.1421 19.9297 51.7114 19.9297C51.1313 19.9297 50.6655 19.7319 50.314 19.3364C49.9712 18.9409 49.7998 18.4443 49.7998 17.8467C49.7998 16.915 50.3008 16.1592 51.3027 15.5791C52.4014 14.9727 53.7725 14.6694 55.416 14.6694C57.2617 14.6694 58.5757 15.0737 59.3579 15.8823C59.7358 16.2603 59.9907 16.7305 60.1226 17.293C60.2544 17.8555 60.3203 18.6421 60.3203 19.6528V26.9961C60.3203 27.4355 60.3599 27.7476 60.439 27.9321C60.5269 28.1079 60.6763 28.1958 60.8872 28.1958C61.1772 28.1958 61.5112 28.042 61.8892 27.7344L62.166 28.1958C61.7529 28.5386 61.3047 28.7891 60.8213 28.9473C60.3379 29.1055 59.7578 29.1846 59.0811 29.1846C58.167 29.1846 57.5078 28.9824 57.1035 28.5781C56.6992 28.1738 56.4971 27.6465 56.4971 26.9961C56.0576 27.7256 55.4819 28.2749 54.77 28.644C54.0581 29.0044 53.2979 29.1846 52.4893 29.1846C51.4609 29.1846 50.6348 28.9165 50.0107 28.3804C49.3955 27.8354 49.0879 27.0796 49.0879 26.1128C49.0879 25.1724 49.3955 24.3945 50.0107 23.7793C50.626 23.1641 51.5796 22.6191 52.8716 22.1445C53.0122 22.0918 53.4692 21.9204 54.2427 21.6304C55.0161 21.3315 55.5742 21.0283 55.917 20.7207C56.2598 20.4131 56.4312 20.0747 56.4312 19.7056V17.6094ZM56.4312 20.813C56.3169 21.0063 56.1279 21.2085 55.8643 21.4194C55.6094 21.6216 55.2402 21.8721 54.7568 22.1709C54.1855 22.5664 53.7373 23.0146 53.4121 23.5156C53.0869 24.0078 52.9243 24.623 52.9243 25.3613C52.9243 26.0645 53.0781 26.5918 53.3857 26.9434C53.6934 27.2861 54.0977 27.4575 54.5986 27.4575C55.3105 27.4575 55.9214 27.0884 56.4312 26.3501V20.813ZM68.5732 17.2534C68.916 16.4888 69.4082 15.8691 70.0498 15.3945C70.7002 14.9111 71.4341 14.6694 72.2515 14.6694C72.7964 14.6694 73.2534 14.7881 73.6226 15.0254C73.9917 15.2627 74.2642 15.5703 74.4399 15.9482C74.6157 16.3174 74.7036 16.7173 74.7036 17.1479C74.7036 17.8159 74.5103 18.3608 74.1235 18.7827C73.7368 19.2046 73.2271 19.4155 72.5942 19.4155C71.979 19.4155 71.4912 19.2617 71.1309 18.9541C70.7793 18.6377 70.6035 18.2158 70.6035 17.6885C70.6035 16.8271 70.999 16.124 71.79 15.5791C71.6758 15.5527 71.5659 15.5396 71.4604 15.5396C71.3374 15.5396 71.1968 15.5615 71.0386 15.6055C70.5815 15.6758 70.1641 15.8955 69.7861 16.2646C69.4082 16.625 69.1094 17.0601 68.8896 17.5698C68.6787 18.0796 68.5732 18.5762 68.5732 19.0596V26.2183C68.5732 27.0532 68.7754 27.6333 69.1797 27.9585C69.584 28.2749 70.23 28.4331 71.1177 28.4331V29C68.8677 28.9297 67.4351 28.8945 66.8198 28.8945C66.2485 28.8945 64.9609 28.9297 62.957 29V28.4331C63.3877 28.4331 63.7261 28.376 63.9722 28.2617C64.2271 28.1475 64.4072 27.9497 64.5127 27.6685C64.627 27.3872 64.6841 26.9961 64.6841 26.4951V17.9785C64.6841 17.1436 64.5566 16.5415 64.3018 16.1724C64.0469 15.7944 63.5986 15.6055 62.957 15.6055V15.0386C63.5283 15.0913 64.0864 15.1177 64.6313 15.1177C66.2222 15.1177 67.5361 14.9946 68.5732 14.7485V17.2534ZM85.6064 25.5459C86.6875 25.5459 87.562 25.7744 88.23 26.2314C88.9067 26.6797 89.2451 27.4136 89.2451 28.4331C89.2451 29.356 88.9551 30.248 88.375 31.1094C87.7949 31.9795 86.916 32.6914 85.7383 33.2451C84.5605 33.7988 83.1235 34.0757 81.4272 34.0757C80.1089 34.0757 79.0015 33.9702 78.105 33.7593C77.2173 33.5571 76.5537 33.2803 76.1143 32.9287C75.6748 32.5771 75.4551 32.1772 75.4551 31.729C75.4551 31.2456 75.6353 30.8853 75.9956 30.6479C76.3647 30.4106 76.9624 30.1602 77.7886 29.8965C78.6147 29.6328 79.1992 29.3779 79.542 29.1318H78.9092C78.1621 29.1318 77.4722 28.9517 76.8394 28.5913C76.2065 28.231 75.8901 27.5762 75.8901 26.627C75.8901 26.1084 75.9956 25.6426 76.2065 25.2295C76.4263 24.8076 76.7822 24.4077 77.2744 24.0298C77.7754 23.6431 78.4478 23.2476 79.2915 22.8433C78.3687 22.5269 77.6479 22.0479 77.1294 21.4062C76.6108 20.7559 76.3516 19.9385 76.3516 18.9541C76.3516 17.5303 76.8789 16.4624 77.9336 15.7505C78.9971 15.0298 80.4033 14.6694 82.1523 14.6694C82.873 14.6694 83.541 14.731 84.1562 14.854C84.1299 14.397 84.165 13.9443 84.2617 13.4961C84.3496 12.749 84.6045 12.1514 85.0264 11.7031C85.4482 11.2461 86.0459 11.0176 86.8193 11.0176C87.3906 11.0176 87.8608 11.1714 88.23 11.479C88.6079 11.7778 88.7969 12.1733 88.7969 12.6655C88.7969 13.1226 88.6167 13.5005 88.2563 13.7993C87.9048 14.0894 87.4609 14.2344 86.9248 14.2344C86.3799 14.2344 85.9536 14.1069 85.646 13.8521C85.3384 13.5972 85.1011 13.2192 84.9341 12.7183C84.7407 13.0435 84.6045 13.5049 84.5254 14.1025C84.5166 14.1904 84.5122 14.3223 84.5122 14.498C84.5122 14.6914 84.5166 14.8364 84.5254 14.9331C85.5977 15.2056 86.437 15.6802 87.0435 16.3569C87.6499 17.0249 87.9531 17.8906 87.9531 18.9541C87.9531 19.9121 87.7026 20.7119 87.2017 21.3535C86.7095 21.9951 86.0283 22.4741 85.1582 22.7905C84.2881 23.0981 83.2861 23.252 82.1523 23.252C81.2998 23.252 80.522 23.1641 79.8188 22.9883C79.3003 23.2871 78.9136 23.5596 78.6587 23.8057C78.4126 24.0518 78.2896 24.333 78.2896 24.6494C78.2896 25.2471 78.6499 25.5459 79.3706 25.5459H85.6064ZM82.1523 15.144C81.5635 15.144 81.1152 15.4341 80.8076 16.0142C80.5 16.5942 80.3462 17.5742 80.3462 18.9541C80.3462 20.334 80.5 21.314 80.8076 21.894C81.1152 22.4741 81.5635 22.7642 82.1523 22.7642C82.75 22.7642 83.1982 22.4741 83.4971 21.894C83.8047 21.314 83.9585 20.334 83.9585 18.9541C83.9585 17.5742 83.8047 16.5942 83.4971 16.0142C83.1982 15.4341 82.75 15.144 82.1523 15.144ZM80.0562 29.1318C79.7573 29.4131 79.5244 29.7603 79.3574 30.1733C79.1992 30.5864 79.1201 30.96 79.1201 31.2939C79.1201 32.041 79.4014 32.6123 79.9639 33.0078C80.5352 33.4121 81.2646 33.6143 82.1523 33.6143C82.8818 33.6143 83.5586 33.478 84.1826 33.2056C84.8154 32.9419 85.3164 32.5552 85.6855 32.0454C86.0635 31.5356 86.2524 30.9424 86.2524 30.2656C86.2524 29.8789 86.1382 29.5933 85.9097 29.4087C85.6812 29.2241 85.2725 29.1318 84.6836 29.1318H80.0562ZM94.6899 20.6548C94.6636 20.9185 94.6504 21.3403 94.6504 21.9204C94.6504 23.1157 94.8174 24.1089 95.1514 24.8999C95.4854 25.6821 95.916 26.2578 96.4434 26.627C96.9795 26.9873 97.5508 27.1675 98.1572 27.1675C99.6426 27.1675 100.833 26.4468 101.73 25.0054L102.205 25.1636C101.976 25.9019 101.62 26.5918 101.137 27.2334C100.662 27.8662 100.056 28.3848 99.3174 28.7891C98.5879 29.1846 97.7529 29.3823 96.8125 29.3823C95.5732 29.3823 94.4834 29.1187 93.543 28.5913C92.6113 28.064 91.8818 27.2642 91.3545 26.1919C90.8359 25.1108 90.5767 23.7705 90.5767 22.1709C90.5767 20.5361 90.8579 19.1606 91.4204 18.0444C91.9829 16.9194 92.7607 16.0757 93.7539 15.5132C94.7471 14.9507 95.894 14.6694 97.1948 14.6694C100.579 14.6694 102.271 16.6646 102.271 20.6548H94.6899ZM98.8691 20.1406C98.8955 18.7344 98.7505 17.5654 98.4341 16.6338C98.1265 15.7021 97.6562 15.2363 97.0234 15.2363C96.3818 15.2363 95.8457 15.6362 95.415 16.436C94.9932 17.2271 94.7339 18.4619 94.6372 20.1406H98.8691ZM112.514 15.0649V15.6055H109.324V26.4951C109.324 27.0312 109.42 27.4136 109.614 27.6421C109.807 27.8618 110.106 27.9717 110.51 27.9717C111.275 27.9717 111.886 27.4312 112.343 26.3501L112.804 26.6006C112.127 28.4551 110.897 29.3823 109.113 29.3823C107.926 29.3823 107.025 29.0747 106.41 28.4595C106.032 28.0903 105.773 27.6245 105.632 27.062C105.5 26.4907 105.435 25.7041 105.435 24.7021V15.6055H103.167V15.0649H105.435V11.479C106.92 11.479 108.216 11.189 109.324 10.6089V15.0649H112.514Z" fill="#263238"/>
<rect y="5" width="26" height="26" rx="5" fill="#FFB6D3"/>
<circle cx="13" cy="18" r="5" fill="#FF5196"/>
<path d="M13 12.4V11M13 25V23.6M18.6 18H20M6 18H7.4M13 12.96C12.0032 12.96 11.0287 13.2556 10.1999 13.8094C9.3711 14.3632 8.72511 15.1503 8.34365 16.0713C7.96218 16.9922 7.86237 18.0056 8.05684 18.9833C8.25131 19.9609 8.73132 20.859 9.43618 21.5638C10.141 22.2687 11.0391 22.7487 12.0167 22.9432C12.9944 23.1376 14.0078 23.0378 14.9287 22.6564C15.8497 22.2749 16.6368 21.6289 17.1906 20.8001C17.7444 19.9712 18.04 18.9968 18.04 18C18.04 16.6633 17.509 15.3814 16.5638 14.4362C15.6186 13.491 14.3367 12.96 13 12.96Z" stroke="white" stroke-width="2" stroke-linecap="square" stroke-linejoin="round"/>
</svg>
