<svg width="50" height="50" viewBox="0 0 50 50" fill="none" xmlns="http://www.w3.org/2000/svg">
<rect x="2" y="26" width="13" height="24" rx="4" fill="#FFB1F3"/>
<rect x="19" y="15" width="14" height="35" rx="4" fill="#FB5BE1"/>
<rect x="37" y="2" width="13" height="48" rx="4" fill="#FFB1F3"/>
<circle cx="9" cy="9" r="9" fill="#434343"/>
<path fill-rule="evenodd" clip-rule="evenodd" d="M7.73073 5.27535L12.3018 6.41843C12.5823 6.48858 12.7453 6.7708 12.6658 7.0488L11.3702 11.579C11.2907 11.857 10.9988 12.0255 10.7183 11.9554C10.4378 11.8852 10.2749 11.603 10.3544 11.325L11.3024 8.01L6.10062 11.0133C5.85445 11.1554 5.53966 11.0711 5.39754 10.8249C5.25541 10.5787 5.33975 10.2639 5.58593 10.1218L10.7877 7.11852L7.44282 6.28207C7.16232 6.21192 6.99937 5.92969 7.07888 5.6517C7.15838 5.3737 7.45023 5.2052 7.73073 5.27535Z" fill="white"/>
</svg>
