<svg width="129" height="34" viewBox="0 0 129 34" fill="none" xmlns="http://www.w3.org/2000/svg">
<path d="M27.8564 33.3112H6.76114C3.29447 33.3112 0.48494 30.5298 0.48494 27.0978V6.21345C0.48494 2.78144 3.29447 0 6.76114 0H27.8564C31.3231 0 34.1326 2.78144 34.1326 6.21345V27.0978C34.1326 30.5298 31.3231 33.3112 27.8564 33.3112Z" fill="#7782FF"/>
<path d="M23.3706 16.9621C23.9706 17.707 24.2754 18.5744 24.2754 19.555C24.2754 20.9975 23.7897 22.129 22.8182 22.9304C21.8468 23.7318 20.4563 24.1467 18.6468 24.1467H10.742V7.31665H18.4563C20.1897 7.31665 21.523 7.6938 22.4659 8.43866C23.4087 9.18351 23.8849 10.2489 23.8849 11.6255C23.8849 12.6438 23.6087 13.483 23.0659 14.1618C22.523 14.8407 21.8087 15.2744 20.923 15.4818C21.9611 15.727 22.7706 16.2172 23.3706 16.9621ZM14.8468 14.1995H17.542C18.9706 14.1995 19.6849 13.5961 19.6849 12.3892C19.6849 11.1824 18.9516 10.5789 17.4944 10.5789H14.8468V14.1995ZM20.0658 18.9893C20.0658 18.3858 19.8659 17.9144 19.4659 17.575C19.0659 17.2355 18.4944 17.0658 17.7611 17.0658H14.8563V20.8467H17.7896C19.3039 20.8373 20.0658 20.2244 20.0658 18.9893Z" fill="white"/>
<path d="M53.6281 24.1467L49.9519 17.7918H49.0185V24.1467H44.9042V7.31665H51.9233C53.2662 7.31665 54.409 7.54294 55.3328 8.00494C56.2662 8.46694 56.9614 9.09865 57.4281 9.90008C57.8947 10.7015 58.1233 11.6161 58.1233 12.6532C58.1233 13.879 57.7805 14.9161 57.1043 15.7741C56.4185 16.6321 55.4376 17.2167 54.1328 17.5372L58.1709 24.1561H53.6281V24.1467ZM49.0185 15.0104H51.5614C52.3804 15.0104 52.9804 14.8312 53.3614 14.473C53.7424 14.1147 53.9423 13.5867 53.9423 12.889C53.9423 12.2195 53.7423 11.7009 53.3519 11.3144C52.9614 10.9372 52.3614 10.7392 51.5614 10.7392H49.0185V15.0104Z" fill="#263238"/>
<path d="M76.733 21.0825H70.3616L69.3044 24.1562H64.9806L71.2092 7.44873H75.9426L82.1712 24.1562H77.7997L76.733 21.0825ZM75.6759 17.9805L73.5616 11.7953L71.4187 17.9805H75.6759Z" fill="#263238"/>
<path d="M104.866 24.1467H100.752L93.8758 13.8129V24.1467H89.7616V7.31665H93.8758L100.752 17.7447V7.31665H104.866V24.1467Z" fill="#263238"/>
<path d="M127.933 20.0925C127.219 21.3653 126.19 22.3648 124.857 23.0813C123.514 23.7979 121.943 24.1562 120.133 24.1562H113.714V7.32617H120.133C121.962 7.32617 123.543 7.67503 124.866 8.37275C126.2 9.07046 127.219 10.051 127.933 11.3239C128.647 12.5968 129 14.0488 129 15.7082C129 17.3488 128.638 18.8102 127.933 20.0925ZM123.505 19.2439C124.39 18.4048 124.838 17.2168 124.838 15.6988C124.838 14.1713 124.39 12.9928 123.505 12.1536C122.619 11.3145 121.371 10.8902 119.762 10.8902H117.819V20.5073H119.762C121.371 20.5073 122.619 20.0925 123.505 19.2439Z" fill="#263238"/>
</svg>
