<svg width="98" height="39" viewBox="0 0 98 39" fill="none" xmlns="http://www.w3.org/2000/svg">
<path d="M11.88 31.42C8.5 31.42 5.92 30.48 4.14 28.6C2.38 26.72 1.5 24.05 1.5 20.59C1.5 18.87 1.77 17.34 2.31 16C2.85 14.64 3.59 13.5 4.53 12.58C5.47 11.64 6.59 10.93 7.89 10.45C9.19 9.97 10.6 9.73 12.12 9.73C13 9.73 13.8 9.8 14.52 9.94C15.24 10.06 15.87 10.21 16.41 10.39C16.95 10.55 17.4 10.72 17.76 10.9C18.12 11.08 18.38 11.22 18.54 11.32L17.19 15.1C16.55 14.76 15.8 14.47 14.94 14.23C14.1 13.99 13.14 13.87 12.06 13.87C11.34 13.87 10.63 13.99 9.93 14.23C9.25 14.47 8.64 14.86 8.1 15.4C7.58 15.92 7.16 16.6 6.84 17.44C6.52 18.28 6.36 19.3 6.36 20.5C6.36 21.46 6.46 22.36 6.66 23.2C6.88 24.02 7.22 24.73 7.68 25.33C8.16 25.93 8.78 26.41 9.54 26.77C10.3 27.11 11.22 27.28 12.3 27.28C12.98 27.28 13.59 27.24 14.13 27.16C14.67 27.08 15.15 26.99 15.57 26.89C15.99 26.77 16.36 26.64 16.68 26.5C17 26.36 17.29 26.23 17.55 26.11L18.84 29.86C18.18 30.26 17.25 30.62 16.05 30.94C14.85 31.26 13.46 31.42 11.88 31.42ZM35.9616 23.08C35.9616 24.32 35.7816 25.46 35.4216 26.5C35.0616 27.52 34.5416 28.4 33.8616 29.14C33.1816 29.86 32.3616 30.42 31.4016 30.82C30.4616 31.22 29.4016 31.42 28.2216 31.42C27.0616 31.42 26.0016 31.22 25.0416 30.82C24.1016 30.42 23.2916 29.86 22.6116 29.14C21.9316 28.4 21.4016 27.52 21.0216 26.5C20.6416 25.46 20.4516 24.32 20.4516 23.08C20.4516 21.84 20.6416 20.71 21.0216 19.69C21.4216 18.67 21.9616 17.8 22.6416 17.08C23.3416 16.36 24.1616 15.8 25.1016 15.4C26.0616 15 27.1016 14.8 28.2216 14.8C29.3616 14.8 30.4016 15 31.3416 15.4C32.3016 15.8 33.1216 16.36 33.8016 17.08C34.4816 17.8 35.0116 18.67 35.3916 19.69C35.7716 20.71 35.9616 21.84 35.9616 23.08ZM31.4016 23.08C31.4016 21.7 31.1216 20.62 30.5616 19.84C30.0216 19.04 29.2416 18.64 28.2216 18.64C27.2016 18.64 26.4116 19.04 25.8516 19.84C25.2916 20.62 25.0116 21.7 25.0116 23.08C25.0116 24.46 25.2916 25.56 25.8516 26.38C26.4116 27.18 27.2016 27.58 28.2216 27.58C29.2416 27.58 30.0216 27.18 30.5616 26.38C31.1216 25.56 31.4016 24.46 31.4016 23.08ZM43.8942 31H39.4242V15.22H43.8942V31ZM44.3142 10.66C44.3142 11.48 44.0442 12.13 43.5042 12.61C42.9842 13.07 42.3642 13.3 41.6442 13.3C40.9242 13.3 40.2942 13.07 39.7542 12.61C39.2342 12.13 38.9742 11.48 38.9742 10.66C38.9742 9.84 39.2342 9.2 39.7542 8.74C40.2942 8.26 40.9242 8.02 41.6442 8.02C42.3642 8.02 42.9842 8.26 43.5042 8.74C44.0442 9.2 44.3142 9.84 44.3142 10.66ZM48.0961 15.76C48.8561 15.54 49.8361 15.34 51.0361 15.16C52.2361 14.96 53.4961 14.86 54.8161 14.86C56.1561 14.86 57.2661 15.04 58.1461 15.4C59.0461 15.74 59.7561 16.23 60.2761 16.87C60.7961 17.51 61.1661 18.27 61.3861 19.15C61.6061 20.03 61.7161 21.01 61.7161 22.09V31H57.2461V22.63C57.2461 21.19 57.0561 20.17 56.6761 19.57C56.2961 18.97 55.5861 18.67 54.5461 18.67C54.2261 18.67 53.8861 18.69 53.5261 18.73C53.1661 18.75 52.8461 18.78 52.5661 18.82V31H48.0961V15.76Z" fill="#263238"/>
<path d="M72.0321 20.02L75.1521 15.22H79.7721L74.3721 22.81C75.5721 24.31 76.6621 25.77 77.6421 27.19C78.6221 28.61 79.4021 29.88 79.9821 31H75.1821C75.0221 30.7 74.8221 30.33 74.5821 29.89C74.3421 29.43 74.0721 28.96 73.7721 28.48C73.4721 27.98 73.1521 27.49 72.8121 27.01C72.4921 26.51 72.1721 26.06 71.8521 25.66C71.5521 26.04 71.2421 26.46 70.9221 26.92C70.6221 27.38 70.3321 27.85 70.0521 28.33C69.7721 28.79 69.4921 29.25 69.2121 29.71C68.9521 30.17 68.7221 30.6 68.5221 31H63.9621C64.2021 30.5 64.5321 29.91 64.9521 29.23C65.3721 28.55 65.8221 27.85 66.3021 27.13C66.8021 26.39 67.3221 25.66 67.8621 24.94C68.4021 24.2 68.9321 23.51 69.4521 22.87C68.5521 21.61 67.6521 20.34 66.7521 19.06C65.8521 17.76 64.9621 16.48 64.0821 15.22H68.9121L72.0321 20.02ZM97.1159 15.22C96.2159 18.26 95.2759 21.11 94.2959 23.77C93.3159 26.43 92.2459 29.01 91.0859 31.51C90.6659 32.41 90.2459 33.17 89.8259 33.79C89.4059 34.43 88.9459 34.95 88.4459 35.35C87.9459 35.77 87.3759 36.07 86.7359 36.25C86.1159 36.45 85.3859 36.55 84.5459 36.55C83.8459 36.55 83.1959 36.48 82.5959 36.34C82.0159 36.22 81.5359 36.08 81.1559 35.92L81.9359 32.35C82.3959 32.51 82.8059 32.62 83.1659 32.68C83.5259 32.74 83.9059 32.77 84.3059 32.77C85.1059 32.77 85.7159 32.55 86.1359 32.11C86.5759 31.69 86.9459 31.1 87.2459 30.34C86.2259 28.34 85.2059 26.1 84.1859 23.62C83.1659 21.12 82.2059 18.32 81.3059 15.22H86.0459C86.2459 16 86.4759 16.85 86.7359 17.77C87.0159 18.67 87.3059 19.59 87.6059 20.53C87.9059 21.45 88.2059 22.35 88.5059 23.23C88.8259 24.11 89.1259 24.91 89.4059 25.63C89.6659 24.91 89.9359 24.11 90.2159 23.23C90.4959 22.35 90.7659 21.45 91.0259 20.53C91.3059 19.59 91.5659 18.67 91.8059 17.77C92.0659 16.85 92.2959 16 92.4959 15.22H97.1159Z" fill="#7782FF"/>
</svg>
