<svg width="63" height="68" viewBox="0 0 63 68" fill="none" xmlns="http://www.w3.org/2000/svg">
<rect width="63" height="68" rx="12" fill="#CDF1F9"/>
<path d="M56.9714 34.0153C56.9714 34.5647 56.7523 35.0915 56.3623 35.48C55.9723 35.8685 55.4434 36.0867 54.8918 36.0867H32.0166C31.4651 36.0867 30.9361 35.8685 30.5461 35.48C30.1561 35.0915 29.937 34.5647 29.937 34.0153C29.937 33.466 30.1561 32.9391 30.5461 32.5507C30.9361 32.1622 31.4651 31.944 32.0166 31.944H54.8918C55.4434 31.944 55.9723 32.1622 56.3623 32.5507C56.7523 32.9391 56.9714 33.466 56.9714 34.0153ZM32.0166 19.5159H54.8918C55.4434 19.5159 55.9723 19.2976 56.3623 18.9092C56.7523 18.5207 56.9714 17.9939 56.9714 17.4445C56.9714 16.8952 56.7523 16.3683 56.3623 15.9799C55.9723 15.5914 55.4434 15.3732 54.8918 15.3732H32.0166C31.4651 15.3732 30.9361 15.5914 30.5461 15.9799C30.1561 16.3683 29.937 16.8952 29.937 17.4445C29.937 17.9939 30.1561 18.5207 30.5461 18.9092C30.9361 19.2976 31.4651 19.5159 32.0166 19.5159ZM54.8918 48.5148H32.0166C31.4651 48.5148 30.9361 48.733 30.5461 49.1215C30.1561 49.5099 29.937 50.0368 29.937 50.5861C29.937 51.1355 30.1561 51.6623 30.5461 52.0508C30.9361 52.4393 31.4651 52.6575 32.0166 52.6575H54.8918C55.4434 52.6575 55.9723 52.4393 56.3623 52.0508C56.7523 51.6623 56.9714 51.1355 56.9714 50.5861C56.9714 50.0368 56.7523 49.5099 56.3623 49.1215C55.9723 48.733 55.4434 48.5148 54.8918 48.5148ZM21.2548 11.7742L13.6384 18.765L10.5451 15.9169C10.1361 15.56 9.60306 15.3768 9.06015 15.4066C8.51723 15.4364 8.00763 15.6768 7.64052 16.0763C7.27341 16.4758 7.078 17.0027 7.09615 17.544C7.1143 18.0852 7.34458 18.5979 7.73764 18.9721L12.2347 23.1148C12.618 23.4644 13.1187 23.6584 13.6384 23.6586C14.1661 23.6599 14.6756 23.4661 15.0681 23.1148L24.0623 14.8294C24.2705 14.6477 24.4402 14.4263 24.5614 14.1784C24.6826 13.9304 24.7529 13.6609 24.7682 13.3855C24.7834 13.1101 24.7433 12.8345 24.6501 12.5748C24.557 12.3151 24.4127 12.0765 24.2258 11.8731C24.0389 11.6696 23.813 11.5054 23.5615 11.3901C23.31 11.2747 23.0379 11.2106 22.7612 11.2014C22.4845 11.1921 22.2087 11.2381 21.95 11.3364C21.6913 11.4348 21.455 11.5836 21.2548 11.7742ZM21.2548 28.345L13.6384 35.3358L10.5451 32.4877C10.3449 32.2971 10.1086 32.1483 9.84989 32.0499C9.59122 31.9516 9.31543 31.9057 9.0387 31.9149C8.76198 31.9241 8.48988 31.9882 8.23838 32.1036C7.98688 32.2189 7.76103 32.3831 7.57409 32.5866C7.38715 32.79 7.24288 33.0286 7.14975 33.2883C7.05661 33.548 7.01648 33.8236 7.03171 34.099C7.04695 34.3744 7.11724 34.644 7.23846 34.8919C7.35968 35.1399 7.52939 35.3612 7.73764 35.543L12.2347 39.6857C12.618 40.0352 13.1187 40.2292 13.6384 40.2294C14.1661 40.2307 14.6756 40.0369 15.0681 39.6857L24.0623 31.4003C24.2705 31.2185 24.4402 30.9972 24.5614 30.7492C24.6826 30.5013 24.7529 30.2317 24.7682 29.9563C24.7834 29.6809 24.7433 29.4053 24.6501 29.1456C24.557 28.8859 24.4127 28.6473 24.2258 28.4439C24.0389 28.2404 23.813 28.0762 23.5615 27.9609C23.31 27.8455 23.0379 27.7814 22.7612 27.7722C22.4845 27.7629 22.2087 27.8089 21.95 27.9072C21.6913 28.0056 21.455 28.1544 21.2548 28.345ZM21.2548 44.9158L13.6384 51.9066L10.5451 49.0585C10.3449 48.868 10.1086 48.7191 9.84989 48.6208C9.59122 48.5224 9.31543 48.4765 9.0387 48.4857C8.76198 48.4949 8.48988 48.559 8.23838 48.6744C7.98688 48.7897 7.76103 48.9539 7.57409 49.1574C7.38715 49.3608 7.24288 49.5994 7.14975 49.8591C7.05661 50.1188 7.01648 50.3944 7.03171 50.6698C7.04695 50.9452 7.11724 51.2148 7.23846 51.4627C7.35968 51.7107 7.52939 51.932 7.73764 52.1138L12.2347 56.2565C12.618 56.606 13.1187 56.8 13.6384 56.8002C14.1661 56.8015 14.6756 56.6077 15.0681 56.2565L24.0623 47.9711C24.4553 47.5968 24.6856 47.0842 24.7037 46.5429C24.7219 46.0016 24.5265 45.4747 24.1594 45.0752C23.7923 44.6757 23.2827 44.4353 22.7397 44.4055C22.1968 44.3757 21.6638 44.5589 21.2548 44.9158Z" fill="#27CAEA"/>
</svg>
