<svg width="81" height="80" viewBox="0 0 81 80" fill="none" xmlns="http://www.w3.org/2000/svg">
<g style="mix-blend-mode:multiply">
<path d="M40.2425 79.1244C62.1578 79.1244 79.9236 61.5363 79.9236 39.8402C79.9236 18.1441 62.1578 0.555908 40.2425 0.555908C18.3273 0.555908 0.56144 18.1441 0.56144 39.8402C0.56144 61.5363 18.3273 79.1244 40.2425 79.1244Z" fill="white"/>
<path d="M40.2425 79.6801C18.0552 79.6801 0 61.8055 0 39.8401C0 17.8747 18.0552 0 40.2425 0C62.4298 0 80.485 17.8747 80.485 39.8401C80.485 61.8055 62.4298 79.6801 40.2425 79.6801ZM40.2425 1.11161C18.6728 1.11161 1.12284 18.4861 1.12284 39.8401C1.12284 61.1941 18.6728 78.5685 40.2425 78.5685C61.8122 78.5685 79.3621 61.1941 79.3621 39.8401C79.3621 18.4861 61.8122 1.11161 40.2425 1.11161Z" fill="#263238"/>
<path d="M45.9018 4.5465C46.1713 4.56873 46.4071 4.57984 46.598 4.57984L46.5755 4.7577C46.2611 4.80217 45.9916 5.0356 45.7783 5.48025L43.1059 10.7715L43.0273 10.7604L42.96 10.7493L41.2645 4.84663C41.1522 4.45757 40.9613 4.24636 40.6918 4.21301L40.7143 4.03516C40.9613 4.07962 41.2869 4.11297 41.6912 4.15743C42.2189 4.2019 42.6119 4.23525 42.8701 4.23525L42.8477 4.4131C42.6119 4.40199 42.4435 4.4131 42.3424 4.44645C42.2413 4.4798 42.1852 4.56873 42.174 4.67989C42.1627 4.77993 42.1852 4.92444 42.2413 5.11342L43.4877 9.62655L45.3404 5.93601C45.4976 5.63587 45.5762 5.39132 45.5986 5.21346C45.6211 5.02449 45.5649 4.87998 45.4414 4.77993C45.3179 4.67989 45.1158 4.62431 44.8463 4.59096L44.8688 4.4131C45.1944 4.46868 45.5425 4.51315 45.9018 4.5465Z" fill="#263238"/>
<path d="M53.4475 6.89197C53.3352 6.89197 53.2454 6.93644 53.178 7.02537C53.1107 7.11429 53.0321 7.2588 52.9535 7.47001L51.3478 11.6941C51.2692 11.9053 51.2243 12.0721 51.2243 12.1832C51.2243 12.2944 51.258 12.3833 51.3366 12.45C51.4152 12.5167 51.5612 12.5945 51.7633 12.6835L51.6959 12.8502C51.4376 12.739 51.0783 12.5945 50.618 12.4167C50.1239 12.2277 49.7534 12.1054 49.5064 12.0276L49.5737 11.8609C49.7871 11.9276 49.9443 11.9609 50.0453 11.9609C50.1464 11.9609 50.2474 11.9164 50.3148 11.8275C50.3822 11.7386 50.4608 11.5941 50.5394 11.3829L52.145 7.15876C52.2236 6.94755 52.2685 6.78081 52.2685 6.66965C52.2685 6.55849 52.2349 6.46956 52.1563 6.40286C52.0777 6.33617 51.9317 6.25836 51.7296 6.16943L51.797 6.00269C52.0328 6.10273 52.3921 6.24724 52.8861 6.43621C53.3465 6.61407 53.717 6.73635 53.9865 6.81416L53.9191 6.9809C53.717 6.91421 53.5598 6.88086 53.4475 6.89197Z" fill="#263238"/>
<path d="M63.4405 12.7723C63.3282 12.7501 63.2159 12.7834 63.1149 12.8501C63.0138 12.9168 62.8903 13.0502 62.7556 13.2392L59.4993 17.6078L59.3309 17.4855L59.7688 10.4602L56.8831 14.3286C56.7484 14.5176 56.6586 14.6732 56.6137 14.7955C56.5687 14.9177 56.5912 15.0289 56.6473 15.1401C56.7035 15.2512 56.8382 15.3735 57.0291 15.5291L56.9168 15.6736C56.7484 15.5291 56.5014 15.3401 56.1757 15.0956C55.8838 14.8844 55.648 14.7176 55.4684 14.6176L55.5806 14.4731C55.7603 14.5954 55.9063 14.6621 56.0185 14.6732C56.1308 14.6954 56.2431 14.6621 56.3442 14.5954C56.4452 14.5176 56.5687 14.3953 56.7035 14.2063L59.3534 10.6492C59.4881 10.4602 59.5779 10.3157 59.6116 10.2156C59.6453 10.1156 59.6341 10.0155 59.5779 9.92661C59.5218 9.83768 59.4095 9.72652 59.2299 9.58201L59.3421 9.4375C59.4881 9.57089 59.7127 9.74875 60.0159 9.95996C60.2404 10.1267 60.4313 10.2601 60.611 10.3601L60.2516 16.2517L62.5871 13.1169C62.7219 12.928 62.8229 12.7723 62.8566 12.6501C62.8903 12.5278 62.8791 12.4166 62.8229 12.3055C62.7668 12.1943 62.6321 12.0609 62.4412 11.9164L62.5535 11.7719C62.7219 11.9164 62.9689 12.1054 63.2945 12.3499C63.5865 12.5611 63.8223 12.7279 64.0019 12.8279L63.8896 12.9724C63.6988 12.8613 63.5528 12.7834 63.4405 12.7723Z" fill="#263238"/>
<path d="M67.2021 17.7857C67.494 17.5745 67.7972 17.341 68.1228 17.052C68.4035 17.4744 68.8976 18.1747 69.6049 19.1641C70.3123 20.1423 70.8176 20.8315 71.1208 21.2317C70.739 21.454 70.4134 21.6541 70.1214 21.8542C69.8744 22.032 69.6723 22.1876 69.5263 22.3099L69.4028 22.1432C69.7621 21.8319 70.0092 21.5763 70.1551 21.3873C70.3011 21.1983 70.3572 20.9982 70.346 20.787C70.3348 20.5758 70.2 20.3201 69.9867 20.0089L69.6948 19.6087L65.4392 22.61C65.2371 22.7546 65.0911 22.8879 65.0238 22.988C64.9564 23.088 64.9339 23.2103 64.9788 23.3437C65.0125 23.466 65.1136 23.6438 65.2596 23.8662L65.1136 23.9773C64.9452 23.7105 64.6869 23.3326 64.3501 22.8768C63.9908 22.3766 63.7213 22.0209 63.5416 21.7986L63.6876 21.6874C63.856 21.8986 63.9907 22.0431 64.103 22.1209C64.2153 22.1988 64.3276 22.221 64.4511 22.1876C64.5746 22.1543 64.7431 22.0654 64.9452 21.9208L69.2007 18.9195L68.9088 18.5193C68.6842 18.2081 68.4821 18.0191 68.2912 17.9302C68.1003 17.8412 67.887 17.8301 67.6624 17.9079C67.4379 17.9858 67.1122 18.1303 66.6968 18.3637L66.5733 18.197C66.7417 18.108 66.9438 17.9746 67.2021 17.7857Z" fill="#263238"/>
<path d="M69.3577 33.2149L69.178 33.2705C69.1106 33.0259 69.0208 32.7147 68.8861 32.3367C68.7176 31.8476 68.5829 31.4808 68.4819 31.2362L68.6615 31.1807C68.7401 31.3919 68.8299 31.5475 68.8973 31.6253C68.9759 31.7031 69.077 31.7253 69.1892 31.6809C69.2903 31.6475 69.4138 31.5697 69.5598 31.4474L70.8061 30.4359L70.0987 28.3572L69.0545 28.3127C68.7176 28.2905 68.4594 28.3127 68.2797 28.3794C68.1001 28.4461 67.9878 28.5461 67.9429 28.6906C67.9092 28.8352 67.9317 29.0464 68.0103 29.302L67.8306 29.3576C67.7408 29.0241 67.6285 28.6906 67.5162 28.3572C67.4264 28.1015 67.3478 27.8903 67.2692 27.7236L67.4488 27.668C67.606 27.9348 67.9429 28.0793 68.4369 28.0904L74.4104 28.3572L74.4553 28.4906L69.6945 32.4145C69.4026 32.6924 69.2903 32.9481 69.3577 33.2149ZM73.2539 28.4906L70.3121 28.3683L70.9745 30.3247L73.2539 28.4906Z" fill="#263238"/>
<path d="M70.1775 41.7189C70.2898 41.6744 70.3459 41.6188 70.3459 41.541C70.3459 41.4966 70.3347 41.4632 70.3122 41.4299C70.2898 41.3965 70.2449 41.3298 70.1775 41.2409C70.0091 41.0297 69.8856 40.8074 69.7957 40.585C69.7059 40.3627 69.661 40.1071 69.661 39.8292C69.6498 39.2067 69.7733 38.6731 70.0203 38.2173C70.2785 37.7616 70.6379 37.417 71.1319 37.1724C71.6147 36.9279 72.1986 36.8056 72.8835 36.7945C73.5909 36.7833 74.2085 36.8945 74.7362 37.1391C75.2639 37.3836 75.6794 37.7171 75.9713 38.1617C76.2633 38.6064 76.4205 39.1066 76.4205 39.6624C76.4205 39.907 76.398 40.1293 76.3531 40.3183C76.3082 40.5072 76.2408 40.674 76.1622 40.8185C76.0836 40.963 75.9826 41.1297 75.8478 41.3076C75.7917 41.3854 75.758 41.4521 75.758 41.4966C75.758 41.6077 75.9489 41.6855 76.3194 41.7189V41.9301C75.9264 41.9079 75.219 41.9079 74.2085 41.9301V41.7189C74.5341 41.6633 74.8036 41.5966 75.0169 41.5299C75.2303 41.4632 75.4099 41.3632 75.5671 41.2409C75.7805 41.063 75.9601 40.8296 76.0836 40.5406C76.2071 40.2516 76.2633 39.9625 76.2633 39.6513C76.252 39.2511 76.1173 38.9065 75.8478 38.6064C75.5783 38.3062 75.1966 38.0839 74.7138 37.9172C74.2197 37.7616 73.6583 37.6837 73.007 37.6949C72.266 37.706 71.6709 37.7949 71.1993 37.9617C70.7277 38.1284 70.3908 38.3729 70.1663 38.6953C69.9417 39.0177 69.8406 39.429 69.8519 39.9292C69.8631 40.296 69.9641 40.6073 70.155 40.8741C70.2336 40.9852 70.301 41.0519 70.3796 41.0853C70.447 41.1186 70.548 41.1297 70.6715 41.1297L71.5586 41.1186C71.8168 41.1186 71.9965 41.0853 72.12 41.0408C72.2323 40.9963 72.3221 40.9074 72.3558 40.774C72.4007 40.6517 72.4232 40.4517 72.4232 40.1849H72.6028C72.5916 40.485 72.5804 40.9074 72.5916 41.4743C72.6028 41.8967 72.614 42.2191 72.6365 42.4192H72.4568C72.4456 42.2747 72.4119 42.1746 72.3782 42.1191C72.3446 42.0635 72.266 42.019 72.1649 41.9968C72.0639 41.9746 71.8954 41.9634 71.6596 41.9746L69.8406 42.0079V41.83C69.9417 41.7856 70.0652 41.7634 70.1775 41.7189Z" fill="#263238"/>
<path d="M68.8417 51.1785C68.516 51.0784 68.1343 50.9784 67.6964 50.8895C67.8423 50.5004 68.0557 49.8446 68.3588 48.9108C68.7182 47.7992 68.9764 46.9544 69.1336 46.3875L69.3133 46.443C69.2571 46.6542 69.2347 46.8099 69.2347 46.921C69.2459 47.0322 69.2908 47.11 69.3806 47.1767C69.4705 47.2434 69.6277 47.3101 69.841 47.3768L74.1864 48.7329C74.4109 48.7996 74.5681 48.833 74.6804 48.833C74.7927 48.833 74.8825 48.7885 74.9499 48.6996C75.0173 48.6107 75.0846 48.4662 75.1632 48.2661L75.3429 48.3217C75.1408 48.8886 74.8713 49.7223 74.512 50.8339C74.2425 51.6787 74.0516 52.2901 73.9618 52.6569C73.5913 52.5013 73.2544 52.3679 72.94 52.279C72.7155 52.2123 72.5246 52.1567 72.3898 52.1345L72.4572 51.9344C72.8502 52.0122 73.1534 52.0455 73.3555 52.0455C73.5576 52.0455 73.726 51.9788 73.8607 51.8455C73.9955 51.7232 74.1078 51.5009 74.2088 51.2007L74.4334 50.4782C74.5008 50.267 74.5345 50.1113 74.5232 50.0113C74.512 49.9113 74.4783 49.8223 74.3885 49.7556C74.2987 49.6889 74.1527 49.6222 73.9281 49.5555L71.8621 48.9108L71.6824 49.4888C71.5926 49.7779 71.6151 50.0002 71.761 50.1558C71.907 50.3114 72.0642 50.4226 72.2439 50.5004C72.4235 50.5782 72.5358 50.6338 72.5807 50.656L72.5133 50.8561C72.2326 50.745 71.9632 50.6449 71.6937 50.5671L71.2782 50.4448C70.9863 50.3559 70.5596 50.2336 70.0206 50.1113L70.088 49.9113C70.1329 49.9224 70.2789 49.9446 70.5259 50.0002C70.7729 50.0446 70.9863 50.0224 71.1547 49.9335C71.3231 49.8446 71.4354 49.6778 71.514 49.4444L71.6937 48.8663L69.5827 48.2105C69.3582 48.1438 69.201 48.1104 69.0887 48.1104C68.9764 48.1104 68.8866 48.1549 68.8304 48.2438C68.7631 48.3328 68.6957 48.4773 68.6283 48.6885L68.4262 49.3221C68.3139 49.6889 68.269 49.978 68.3139 50.1892C68.3476 50.4115 68.4599 50.5893 68.6508 50.745C68.8417 50.8895 69.1336 51.0562 69.5266 51.2341L69.4592 51.4342C69.3245 51.3341 69.1111 51.2674 68.8417 51.1785Z" fill="#263238"/>
<path d="M65.6411 64.8181C65.686 64.718 65.6748 64.618 65.6299 64.518C65.585 64.4179 65.4727 64.2956 65.3043 64.1289L62.0031 61.0053C61.8347 60.8496 61.7 60.7496 61.5989 60.7051C61.4979 60.6607 61.3968 60.6607 61.2958 60.7051C61.1947 60.7496 61.0712 60.8496 60.914 61.0053L60.7793 60.883C60.9926 60.694 61.2621 60.4161 61.6101 60.0715C61.9695 59.6936 62.2389 59.4045 62.4074 59.2156L62.5421 59.3379C62.3961 59.5046 62.3063 59.638 62.2614 59.7269C62.2165 59.827 62.2277 59.927 62.2726 60.0271C62.3175 60.1271 62.4298 60.2494 62.5982 60.4161L65.8994 63.5397C66.0678 63.6954 66.2026 63.7954 66.3036 63.8399C66.4047 63.8843 66.5057 63.8843 66.6068 63.8399C66.7078 63.7954 66.8313 63.6954 66.9885 63.5397L67.1233 63.662C66.9324 63.8288 66.6517 64.1067 66.2924 64.4846C65.9443 64.8403 65.686 65.1293 65.5064 65.3405L65.3717 65.2183C65.5064 65.0515 65.5962 64.9181 65.6411 64.8181Z" fill="#263238"/>
<path d="M56.288 71.5988C56.3554 71.4987 56.3666 71.3987 56.3441 71.2764C56.3217 71.1541 56.2431 70.9985 56.1196 70.7873L53.3349 66.1074L53.5146 65.9963L59.8699 69.1421L57.4108 65.0069C57.2873 64.8069 57.1863 64.6623 57.0852 64.5845C56.9842 64.5067 56.8719 64.4734 56.7484 64.4845C56.6249 64.4956 56.4564 64.5623 56.2431 64.6735L56.142 64.5178C56.3441 64.4289 56.6136 64.2733 56.9617 64.0732C57.2761 63.8842 57.5119 63.7397 57.6803 63.6174L57.7702 63.7731C57.5905 63.8842 57.467 63.9954 57.4108 64.0954C57.3435 64.1955 57.3322 64.2955 57.3547 64.4178C57.3772 64.5401 57.4558 64.6957 57.5793 64.9069L59.8474 68.7197C59.9597 68.9198 60.0607 69.0532 60.1506 69.1199C60.2404 69.1866 60.3302 69.2199 60.4425 69.1977C60.5436 69.1755 60.7008 69.1199 60.8916 69.0199L60.9815 69.1755C60.8018 69.2644 60.5548 69.3978 60.2292 69.5868C59.9934 69.7202 59.7913 69.8536 59.6228 69.9647L54.2894 67.3302L56.288 70.6873C56.4115 70.8874 56.5126 71.0319 56.6136 71.1097C56.7035 71.1875 56.8157 71.2208 56.9505 71.2097C57.0852 71.1986 57.2536 71.1319 57.467 71.0207L57.5568 71.1764C57.3547 71.2653 57.0852 71.4209 56.7371 71.621C56.4227 71.81 56.1869 71.9545 56.0185 72.0768L55.9287 71.9211C56.0971 71.7989 56.2206 71.6877 56.288 71.5988Z" fill="#263238"/>
<path d="M50.1126 73.055C50.1912 73.3996 50.2922 73.7776 50.427 74.1778C49.9217 74.2667 49.0796 74.4445 47.8894 74.6891C46.6991 74.9448 45.8682 75.1337 45.3742 75.256C45.3181 74.8225 45.2619 74.4445 45.1833 74.0999C45.1159 73.7998 45.0598 73.5553 44.9924 73.3774L45.1945 73.3329C45.3405 73.7887 45.4752 74.1111 45.5988 74.3223C45.7223 74.5335 45.8795 74.6669 46.0816 74.7336C46.2837 74.8003 46.5756 74.7891 46.9462 74.7113L47.429 74.6113L46.3286 69.5535C46.2725 69.3089 46.2163 69.131 46.1377 69.031C46.0591 68.931 45.9693 68.8643 45.8346 68.8531C45.6998 68.8309 45.4977 68.8531 45.2282 68.8976L45.1945 68.7198C45.5089 68.6753 45.9581 68.5864 46.5195 68.4641C47.1146 68.3307 47.5637 68.2306 47.8444 68.1528L47.8781 68.3307C47.6086 68.3974 47.429 68.4641 47.3167 68.5308C47.2044 68.5975 47.137 68.6975 47.1146 68.8198C47.0921 68.9421 47.1034 69.131 47.1595 69.3756L48.2599 74.4334L48.7427 74.3334C49.1132 74.2556 49.3827 74.1444 49.5399 73.9999C49.6971 73.8554 49.7869 73.6664 49.8094 73.433C49.8319 73.1995 49.8206 72.8438 49.7645 72.3769L49.9666 72.3325C50.0003 72.5103 50.0452 72.7549 50.1126 73.055Z" fill="#263238"/>
<path d="M35.2121 69.9313C35.2458 69.5867 35.257 69.1977 35.257 68.7642C35.6725 68.8197 36.3686 68.8864 37.3567 68.9754C38.5245 69.0754 39.4115 69.1532 40.0179 69.1866L40.0066 69.3644C39.7821 69.3533 39.6249 69.3644 39.5238 69.3978C39.4228 69.4311 39.3442 69.4867 39.2993 69.5867C39.2543 69.6868 39.2207 69.8535 39.1982 70.0759L38.794 74.5779C38.7715 74.8002 38.7828 74.9669 38.8052 75.0781C38.8277 75.1893 38.895 75.2671 38.9961 75.3115C39.0971 75.356 39.2543 75.4005 39.4677 75.4227L39.4565 75.6006C38.8613 75.5339 37.9743 75.4449 36.8066 75.3449C35.9083 75.2671 35.2683 75.2226 34.8865 75.2004C34.9651 74.8113 35.0212 74.4556 35.0437 74.1332C35.0662 73.8998 35.0774 73.7108 35.0662 73.5663L35.2795 73.5885C35.2907 73.9887 35.3132 74.2777 35.3693 74.4778C35.4142 74.6779 35.5153 74.8224 35.6725 74.9225C35.8185 75.0225 36.0655 75.0892 36.3799 75.1114L37.1434 75.1781C37.368 75.2004 37.5252 75.1893 37.6262 75.167C37.7273 75.1448 37.8059 75.0781 37.8508 74.9781C37.8957 74.878 37.9294 74.7113 37.9518 74.4889L38.1427 72.3547L37.5364 72.2991C37.2332 72.2768 37.0199 72.3435 36.8964 72.5214C36.7841 72.6993 36.6943 72.8771 36.6606 73.0661C36.6157 73.2551 36.5932 73.3773 36.582 73.4329L36.3686 73.4107C36.4136 73.1106 36.4472 72.8326 36.4809 72.5547L36.5146 72.1212C36.5371 71.81 36.5595 71.3876 36.582 70.8318L36.7953 70.854C36.7953 70.8985 36.8066 71.043 36.8066 71.2986C36.8178 71.5543 36.8739 71.7544 37.0087 71.8878C37.1322 72.0323 37.3231 72.1101 37.5701 72.1323L38.1764 72.1879L38.3673 70.0092C38.3898 69.7868 38.3785 69.6201 38.3561 69.5089C38.3336 69.4089 38.2662 69.3311 38.1652 69.2866C38.0641 69.2422 37.9069 69.2088 37.6936 69.1866L37.0199 69.131C36.6381 69.0976 36.3462 69.1199 36.1329 69.2088C35.9307 69.2866 35.7735 69.4422 35.6613 69.6534C35.549 69.8647 35.4592 70.187 35.3693 70.6094L35.156 70.5872C35.156 70.4205 35.1784 70.1981 35.2121 69.9313Z" fill="#263238"/>
<path d="M26.3758 65.8074C26.5442 65.774 26.7351 65.8074 26.9372 65.8963C27.173 65.9963 27.3302 66.1408 27.42 66.3298C27.5098 66.5299 27.5211 66.8078 27.4649 67.1746L27.2965 68.0862C27.2404 68.4085 27.2067 68.6531 27.1955 68.8421C27.1842 69.0199 27.2291 69.1867 27.3077 69.3312C27.3863 69.4757 27.5323 69.5868 27.7456 69.6758L28.5541 70.0092L29.3738 68.075C29.4636 67.8638 29.5085 67.7082 29.5197 67.5971C29.531 67.4859 29.486 67.397 29.4074 67.3192C29.3288 67.2413 29.1941 67.1635 28.992 67.0746L29.0594 66.9079C29.3176 67.0301 29.6657 67.1858 30.1261 67.3747C30.6089 67.5748 30.9794 67.7193 31.2264 67.7971L31.1591 67.9639C30.9457 67.8861 30.7885 67.8527 30.6875 67.8416C30.5752 67.8416 30.4854 67.875 30.418 67.9639C30.3394 68.0417 30.2608 68.1862 30.171 68.3974L28.4081 72.5659C28.3183 72.7771 28.2734 72.9328 28.2622 73.0439C28.2509 73.1551 28.2958 73.244 28.3744 73.3218C28.453 73.3997 28.5878 73.4775 28.7899 73.5775L28.7225 73.7442C28.4867 73.6331 28.1499 73.4775 27.7007 73.2885C27.4762 73.1996 27.2404 73.0995 26.9709 72.9884C26.7014 72.8772 26.5218 72.8105 26.4207 72.766C25.9828 72.5771 25.6347 72.3659 25.3765 72.1102C25.1182 71.8545 24.9722 71.5877 24.9049 71.2987C24.8375 71.0097 24.8712 70.7318 24.9947 70.4539C25.0845 70.2316 25.2305 70.0315 25.4326 69.8536C25.6347 69.6758 25.893 69.5424 26.2074 69.4757C26.5218 69.409 26.9035 69.4201 27.319 69.5201L27.2179 69.4646C26.9821 69.32 26.8025 69.1755 26.6902 69.0199C26.5779 68.8754 26.4993 68.7087 26.4768 68.5308C26.4432 68.3529 26.4544 68.1306 26.4993 67.8638L26.6565 66.919C26.6902 66.73 26.7126 66.5855 26.7126 66.4743C26.7126 66.3632 26.7014 66.2742 26.6677 66.2075C26.634 66.1408 26.5779 66.0853 26.4993 66.063C26.4095 66.0186 26.3196 66.0186 26.241 66.0408C26.1624 66.063 26.0502 66.1186 25.9042 66.1964L25.8144 66.0519C26.0165 65.9296 26.2074 65.8407 26.3758 65.8074ZM26.9372 69.7647C26.6677 69.798 26.4544 69.8981 26.286 70.0648C26.1175 70.2316 25.9716 70.4539 25.8481 70.7429C25.6572 71.1987 25.6123 71.5988 25.7358 71.9212C25.8593 72.2436 26.1624 72.5104 26.6677 72.7216C26.8474 72.7994 26.9821 72.8327 27.0944 72.8216C27.1955 72.8216 27.2853 72.7771 27.3639 72.6882C27.4425 72.5993 27.5211 72.4548 27.5997 72.2547L28.4755 70.1871L27.9028 69.9537C27.5323 69.798 27.2067 69.7313 26.9372 69.7647Z" fill="#263238"/>
<path d="M17.6173 67.3191C17.7184 67.3525 17.8194 67.3302 17.9092 67.2747C17.9991 67.2191 18.1226 67.0968 18.2686 66.919L21.0869 63.3618C21.2328 63.1839 21.3227 63.0394 21.3564 62.9394C21.39 62.8393 21.3788 62.7393 21.3227 62.6504C21.2665 62.5614 21.1542 62.4392 20.9858 62.2947L21.0981 62.1501C21.3114 62.3391 21.6034 62.5837 21.9964 62.8838C22.4118 63.2062 22.7262 63.4396 22.9396 63.5841L22.8273 63.7286C22.6476 63.5952 22.5017 63.5174 22.4006 63.4952C22.2995 63.4618 22.1985 63.473 22.1087 63.5397C22.0188 63.5952 21.8953 63.7175 21.7494 63.8954L18.931 67.4525C18.7851 67.6304 18.6952 67.7749 18.6615 67.8749C18.6279 67.975 18.6391 68.075 18.6952 68.164C18.7514 68.2529 18.8637 68.3752 19.0321 68.5197L18.9198 68.6642C18.7289 68.4974 18.4258 68.2529 18.0103 67.9194C17.6173 67.6193 17.3029 67.3858 17.0783 67.2302L17.1906 67.0857C17.3815 67.208 17.5163 67.2858 17.6173 67.3191Z" fill="#263238"/>
<path d="M10.3641 59.4045C10.3192 58.9043 10.4314 58.4041 10.6897 57.9261C10.9592 57.437 11.3634 57.0035 11.9248 56.5922C12.475 56.2031 13.0252 55.9474 13.5978 55.8474C14.1705 55.7473 14.6982 55.7807 15.1923 55.9697C15.6863 56.1586 16.1018 56.481 16.4274 56.9368C16.7755 57.4036 16.9664 57.8927 17.0113 58.393C17.0562 58.8932 16.9439 59.3934 16.6856 59.8714C16.4162 60.3605 16.0119 60.7941 15.4505 61.2053C14.9003 61.5944 14.3501 61.8501 13.7775 61.9501C13.2161 62.0502 12.6771 62.0168 12.1831 61.8278C11.689 61.6389 11.2736 61.3165 10.9479 60.8719C10.5999 60.3939 10.409 59.9048 10.3641 59.4045ZM12.0483 61.3832C12.4413 61.461 12.8905 61.4277 13.3845 61.272C13.8786 61.1164 14.3726 60.8607 14.8891 60.4828C15.4056 60.116 15.8098 59.7158 16.0905 59.2934C16.3825 58.871 16.5397 58.4486 16.5621 58.0484C16.5958 57.6482 16.4948 57.2925 16.2814 56.9923C16.0456 56.6811 15.7425 56.481 15.3382 56.4032C14.9452 56.3254 14.4961 56.3587 14.0021 56.5144C13.508 56.67 13.014 56.9257 12.4975 57.2925C11.981 57.6593 11.5767 58.0595 11.296 58.493C11.0041 58.9154 10.8469 59.3267 10.8132 59.738C10.7795 60.1382 10.8806 60.4939 11.0939 60.794C11.3297 61.1053 11.6441 61.3054 12.0483 61.3832Z" fill="#263238"/>
<path d="M11.2285 46.0207C11.3632 46.1207 11.4643 46.2875 11.5317 46.5098C11.6103 46.7432 11.599 46.9656 11.5092 47.1545C11.4194 47.3546 11.206 47.5436 10.8804 47.7326L10.0607 48.1883C9.78004 48.3551 9.5667 48.4885 9.42073 48.5996C9.27476 48.7108 9.1737 48.8442 9.11756 48.9998C9.06142 49.1554 9.06142 49.3333 9.12879 49.5556L9.38704 50.3893L11.4082 49.7668C11.6327 49.7001 11.7787 49.6334 11.8685 49.5667C11.9583 49.5 12.0033 49.4111 12.0145 49.3111C12.0257 49.211 11.992 49.0443 11.9359 48.8331L12.1155 48.7775C12.1829 49.0443 12.284 49.4222 12.4412 49.8891C12.5984 50.3893 12.7219 50.7561 12.8117 50.9896L12.632 51.0452C12.5534 50.834 12.4861 50.6894 12.4187 50.6116C12.3513 50.5338 12.2615 50.4782 12.1492 50.4782C12.0369 50.4782 11.8685 50.5005 11.6552 50.5783L7.29857 51.9122C7.074 51.9789 6.92803 52.0456 6.8382 52.1123C6.74838 52.179 6.70346 52.2679 6.69223 52.368C6.68101 52.4791 6.71469 52.6348 6.77083 52.846L6.59118 52.9016C6.53504 52.657 6.43398 52.3013 6.28801 51.8344C6.22064 51.6121 6.13082 51.3564 6.04099 51.0896C5.95116 50.8228 5.88379 50.6339 5.85011 50.5338C5.70414 50.0781 5.65922 49.6779 5.69291 49.3222C5.72659 48.9665 5.83888 48.6774 6.01853 48.444C6.19819 48.2106 6.43398 48.0549 6.72592 47.966C6.95049 47.8993 7.19751 47.8771 7.46699 47.9104C7.73647 47.9438 7.99473 48.0549 8.26421 48.255C8.53369 48.4551 8.75825 48.7441 8.94914 49.1332L8.93791 49.022C8.90422 48.7441 8.89299 48.5218 8.93791 48.3328C8.98282 48.1439 9.06142 47.9882 9.1737 47.8548C9.29722 47.7215 9.47687 47.5769 9.71267 47.4436L10.5436 46.9544C10.712 46.8655 10.8467 46.7766 10.9253 46.7099C11.0039 46.6432 11.0713 46.5765 11.105 46.5098C11.1387 46.4431 11.1387 46.3653 11.1162 46.2875C11.0825 46.1874 11.0376 46.1207 10.9702 46.0763C10.9029 46.0318 10.7906 45.9762 10.6334 45.9206L10.6895 45.7539C10.9141 45.8317 11.105 45.9206 11.2285 46.0207ZM8.54492 48.9998C8.35403 48.8219 8.12947 48.7219 7.89367 48.6997C7.65787 48.6774 7.38839 48.7108 7.08523 48.8108C6.60241 48.9553 6.27678 49.1888 6.09713 49.4889C5.91748 49.789 5.91748 50.2003 6.07467 50.7006C6.13082 50.8784 6.19819 51.0118 6.26556 51.0896C6.33293 51.1674 6.43398 51.2119 6.54627 51.2119C6.65855 51.2119 6.82697 51.1786 7.02909 51.123L9.18493 50.456L9.00528 49.8669C8.893 49.4667 8.7358 49.1777 8.54492 48.9998Z" fill="#263238"/>
<path d="M10.364 35.4716C10.7907 35.2826 11.0489 34.9269 11.1612 34.3933C11.1949 34.1932 11.1949 33.9931 11.1387 33.8042C11.0826 33.6152 10.9816 33.4484 10.8244 33.3039C10.6672 33.1594 10.4538 33.0594 10.1731 33.0149C9.93731 32.9705 9.72397 32.9927 9.52186 33.0705C9.31975 33.1483 9.11764 33.2706 8.92676 33.4373C8.73588 33.6041 8.51131 33.8264 8.26428 34.1043C7.98357 34.4155 7.73655 34.6712 7.52321 34.8491C7.30987 35.038 7.07408 35.1714 6.81582 35.2715C6.55757 35.3715 6.26563 35.3826 5.94001 35.3271C5.60316 35.2604 5.32245 35.1381 5.12034 34.938C4.91823 34.7379 4.77226 34.5045 4.70489 34.2266C4.63752 33.9487 4.63752 33.6596 4.69366 33.3484C4.72735 33.1594 4.77226 33.0149 4.8284 32.8815C4.88454 32.7481 4.94069 32.6481 5.00806 32.5703C5.07543 32.4925 5.1428 32.4035 5.23262 32.3146C5.34491 32.1923 5.40105 32.1034 5.42351 32.0367C5.43473 31.9811 5.41228 31.9367 5.35614 31.8922C5.29999 31.8477 5.19894 31.8144 5.0642 31.7699L5.09788 31.5698C5.44596 31.6588 6.05229 31.7921 6.93934 31.9589L6.90565 32.159C6.59126 32.1256 6.29932 32.1367 6.00738 32.2034C5.72667 32.259 5.47965 32.3813 5.27754 32.5703C5.07543 32.7481 4.94069 33.0038 4.88454 33.3151C4.83963 33.5263 4.85086 33.7152 4.907 33.9042C4.96314 34.0932 5.0642 34.2377 5.19894 34.36C5.34491 34.4822 5.51333 34.5601 5.71544 34.6045C6.04107 34.6601 6.32178 34.6156 6.55757 34.46C6.79337 34.3044 7.01793 34.1043 7.23127 33.8709C7.44461 33.6374 7.57935 33.4818 7.65795 33.404C7.97235 33.0705 8.2306 32.8148 8.44394 32.6259C8.65728 32.4369 8.89307 32.3035 9.15133 32.2146C9.40958 32.1256 9.69029 32.1145 9.99345 32.1701C10.364 32.2368 10.6672 32.3813 10.8917 32.5925C11.1163 32.8148 11.2623 33.0705 11.3409 33.3817C11.4195 33.693 11.4195 34.0265 11.3521 34.3822C11.2959 34.6712 11.2286 34.8935 11.1275 35.0714C11.0377 35.2492 10.9142 35.4049 10.7794 35.5494C10.6672 35.6717 10.611 35.7606 10.5886 35.8273C10.5773 35.8829 10.5998 35.9273 10.6559 35.9718C10.7121 36.0163 10.8131 36.0607 10.9479 36.0941L10.9142 36.2942C10.5886 36.2052 9.86994 36.0607 8.75833 35.8606L8.79202 35.6605C9.42081 35.7161 9.93731 35.6605 10.364 35.4716Z" fill="#263238"/>
<path d="M8.14077 26.1006C7.82638 25.9339 7.46707 25.7783 7.06285 25.6227C7.30987 25.1891 7.72532 24.4332 8.28674 23.355C8.84816 22.2878 9.24115 21.5319 9.45449 21.0762C9.82503 21.3096 10.1619 21.5097 10.465 21.6653C10.7345 21.8098 10.9703 21.9099 11.15 21.9877L11.0489 22.1767C10.5998 21.9988 10.2629 21.8876 10.0271 21.8543C9.79134 21.8098 9.578 21.8543 9.39835 21.9655C9.21869 22.0766 9.03904 22.2989 8.87062 22.6324L8.64605 23.0771L13.2834 25.467C13.5079 25.5893 13.6876 25.6449 13.8111 25.656C13.9346 25.6671 14.0469 25.6338 14.148 25.5448C14.249 25.4559 14.3613 25.2892 14.496 25.0557L14.6645 25.1447C14.496 25.4226 14.2827 25.8116 14.0132 26.323C13.7325 26.8565 13.5304 27.2678 13.4069 27.5235L13.2385 27.4346C13.3507 27.19 13.4293 27.001 13.4406 26.8788C13.463 26.7454 13.4293 26.6342 13.3395 26.5342C13.2497 26.4341 13.1037 26.3341 12.8791 26.2118L8.24183 23.8107L8.00603 24.2443C7.82638 24.5777 7.74778 24.8445 7.75901 25.0557C7.77023 25.2669 7.86006 25.4559 8.02849 25.6227C8.19691 25.7894 8.47762 26.0117 8.88184 26.2674L8.78079 26.4564C8.63482 26.3674 8.41025 26.2452 8.14077 26.1006Z" fill="#263238"/>
<path d="M16.0678 13.3283C16.2587 13.1394 16.4159 12.9615 16.5281 12.8281L16.6629 12.9615C16.5955 13.0616 16.5618 13.2061 16.5731 13.3728C16.5843 13.5396 16.6292 13.773 16.719 14.0509L17.7408 17.0634L18.931 18.2305C19.0994 18.3862 19.223 18.4973 19.324 18.5418C19.4251 18.5863 19.5261 18.5863 19.6272 18.5418C19.7282 18.4973 19.8517 18.3973 20.0202 18.2528L20.1549 18.3862C19.9416 18.5751 19.6609 18.8419 19.3128 19.1865C18.9422 19.5534 18.6728 19.8424 18.5043 20.0314L18.3696 19.898C18.5156 19.7312 18.6166 19.6089 18.6615 19.5089C18.7065 19.4088 18.7065 19.3088 18.6503 19.2088C18.6054 19.1087 18.4931 18.9753 18.3359 18.8197L17.3478 17.8526L13.5975 16.7632C13.373 16.6965 13.2045 16.6743 13.0923 16.6854C12.98 16.6965 12.9014 16.7299 12.8452 16.7855L12.7105 16.6521C12.8902 16.4964 13.0923 16.3186 13.2944 16.1074C13.7098 15.685 14.013 15.3848 14.1814 15.1847L14.3162 15.3181C14.013 15.6183 13.9456 15.8517 14.114 16.0184C14.1814 16.0851 14.2712 16.1296 14.406 16.1741L17.5612 17.1412L16.7303 14.6845C16.6067 14.3288 16.4832 14.0842 16.3485 13.962C16.225 13.8397 16.0902 13.8063 15.9443 13.8508C15.7983 13.8953 15.6299 14.0064 15.4278 14.1954L15.293 14.062C15.5625 13.8175 15.8095 13.5729 16.0678 13.3283Z" fill="#263238"/>
<path d="M22.8613 8.84845C22.7939 8.92626 22.7603 9.02631 22.7827 9.13747C22.8052 9.24863 22.8613 9.40426 22.9736 9.60435L25.1407 13.5839C25.253 13.784 25.3428 13.9174 25.4326 13.9952C25.5112 14.073 25.6123 14.0952 25.7133 14.0841C25.8144 14.073 25.9716 14.0063 26.1625 13.9063L26.7576 13.5839C27.0944 13.406 27.3302 13.2171 27.4537 13.0281C27.5772 12.8391 27.6221 12.6279 27.5885 12.3723C27.5548 12.1166 27.4537 11.7942 27.2741 11.3718L27.4649 11.2718C27.5435 11.4496 27.6558 11.6719 27.8018 11.9387C27.9702 12.2389 28.1723 12.5723 28.4194 12.9392C28.0488 13.117 27.42 13.4394 26.5554 13.9063C25.5224 14.4621 24.7364 14.8845 24.2199 15.1846L24.1301 15.029C24.321 14.9178 24.4557 14.8178 24.5231 14.74C24.5905 14.6622 24.6242 14.5621 24.6017 14.451C24.5793 14.3398 24.5231 14.1842 24.4108 13.9841L22.2213 10.0045C22.109 9.80444 22.0192 9.67104 21.9294 9.59323C21.8508 9.51542 21.7497 9.49319 21.6486 9.5043C21.5364 9.51542 21.3904 9.571 21.1883 9.67104L21.1097 9.5043C21.3455 9.40426 21.6936 9.2264 22.1539 8.97073C22.5918 8.73729 22.9287 8.54832 23.1645 8.40381L23.2543 8.55943C23.0634 8.67059 22.9399 8.77064 22.8613 8.84845Z" fill="#263238"/>
<path d="M36.5375 9.55984C36.6049 9.89332 36.706 10.2713 36.8295 10.6937C36.414 10.7604 35.7291 10.8826 34.7635 11.0716C33.6069 11.2939 32.7424 11.4718 32.1473 11.6052L32.1136 11.4273C32.3269 11.3718 32.4841 11.3273 32.5739 11.2606C32.6638 11.205 32.7199 11.1161 32.7311 11.016C32.7424 10.9049 32.7311 10.7381 32.6862 10.5158L31.8104 6.0805C31.7655 5.85818 31.7206 5.70255 31.6532 5.60251C31.5858 5.50246 31.5185 5.44688 31.4062 5.43577C31.3051 5.41353 31.1367 5.42465 30.9234 5.458L30.8897 5.28014C31.4848 5.1801 32.3606 5.02447 33.5059 4.80215C34.3929 4.62429 35.0217 4.50201 35.381 4.41309C35.4147 4.81327 35.4709 5.16898 35.527 5.48023C35.5719 5.71367 35.6168 5.89153 35.6617 6.02492L35.4596 6.06938C35.3361 5.69144 35.2238 5.41353 35.1228 5.23568C35.0217 5.05782 34.8757 4.94666 34.7073 4.89108C34.5277 4.8355 34.2919 4.8355 33.9662 4.90219L33.2139 5.0467C33.0006 5.09117 32.8434 5.13563 32.7536 5.19121C32.6638 5.24679 32.6076 5.32461 32.5852 5.43577C32.5739 5.54693 32.5852 5.71367 32.6301 5.93599L33.0455 8.04805L33.6406 7.92577C33.9438 7.87019 34.1234 7.7368 34.1908 7.53671C34.2582 7.33662 34.2806 7.14764 34.2694 6.95867C34.2582 6.7697 34.247 6.64742 34.247 6.59184L34.4491 6.54737C34.4828 6.84751 34.5277 7.12541 34.5838 7.3922L34.6736 7.81461C34.7298 8.11474 34.8308 8.53715 34.9768 9.07073L34.7747 9.11519C34.7635 9.07073 34.7186 8.93733 34.64 8.69278C34.5614 8.44823 34.4491 8.28149 34.2806 8.18144C34.1122 8.0814 33.9213 8.05916 33.6743 8.10363L33.0792 8.21479L33.5059 10.3602C33.5508 10.5825 33.5957 10.7381 33.6519 10.8382C33.708 10.9271 33.7866 10.9827 33.8989 11.0049C33.9999 11.016 34.1684 11.0049 34.3817 10.9605L35.0442 10.8271C35.4147 10.7493 35.6954 10.6492 35.8751 10.5158C36.0547 10.3824 36.1558 10.1935 36.2007 9.96001C36.2456 9.72658 36.2456 9.39309 36.2119 8.95957L36.414 8.9151C36.4477 9.08184 36.4814 9.29305 36.5375 9.55984Z" fill="#263238"/>
<path d="M28.9695 52.0123C28.453 51.3231 28.0038 50.5672 27.6109 49.7335C27.2179 48.8998 26.9035 48.055 26.6677 47.1879C26.1512 43.3751 26.1399 39.6734 26.6228 36.0829C27.1056 32.4924 27.8916 28.9575 28.9695 25.4671C29.1491 25.078 29.5421 24.889 30.1485 24.889C30.7548 24.889 31.3499 25.0224 31.9562 25.2892C32.5626 25.556 33.0566 25.9117 33.4496 26.3563C33.8426 26.801 33.9324 27.2679 33.7191 27.7459C33.3822 28.4573 33.0566 29.4244 32.731 30.6249C32.4054 31.8366 32.0797 33.1705 31.7878 34.6267C31.4846 36.0829 31.2264 37.6169 31.0018 39.2065C30.7773 40.7961 30.6088 42.3302 30.5078 43.7864C30.4067 45.2426 30.3843 46.5654 30.4404 47.7437C30.4965 48.922 30.6762 49.8558 30.9794 50.5338C32.3941 48.6552 33.6854 46.7099 34.8644 44.6979C36.0434 42.6859 37.1437 40.6516 38.1768 38.5729C39.2098 36.5053 40.1979 34.4155 41.1298 32.2923C42.0618 30.1803 42.9825 28.0905 43.8808 26.034C44.3299 24.9891 44.779 23.8886 45.2169 22.7325C45.6549 21.5653 46.2275 20.576 46.9573 19.7423C47.2605 19.4755 47.4963 19.3866 47.6535 19.4755C47.8219 19.5644 47.9342 19.7312 47.9904 19.9868C48.0465 20.2425 48.0802 20.5093 48.0802 20.7872C48.0802 21.0651 48.0802 21.2874 48.0802 21.4319C47.8668 22.7992 47.6872 24.1554 47.5412 25.5004C47.3953 26.8455 47.0696 28.1349 46.598 29.391C45.812 31.3586 45.0148 33.3039 44.1839 35.2492C43.353 37.1834 42.466 39.0954 41.5228 40.974C40.5796 42.8526 39.5466 44.6757 38.4575 46.4431C37.3571 48.2217 36.1669 49.9113 34.8644 51.5121C33.8426 52.7904 32.8208 53.4685 31.8215 53.5463C30.7773 53.6352 29.8453 53.1128 28.9695 52.0123Z" fill="#FF5196" stroke="white" stroke-miterlimit="10"/>
<path d="M47.5638 46.9657C46.9575 46.132 46.3624 45.2872 45.7785 44.4201C45.1946 43.5531 44.9027 42.6082 44.9027 41.5633C44.9027 40.4072 45.2395 39.3067 45.9132 38.2729C46.5869 37.2503 47.3617 36.4165 48.2375 35.794C48.5968 35.5606 48.9673 35.3605 49.3379 35.216C49.7084 35.0715 50.1126 35.0826 50.5393 35.2605C50.719 35.3494 50.9098 35.4161 51.1007 35.4606C51.2916 35.505 51.4713 35.5606 51.6172 35.6162C51.7632 35.6718 51.9316 35.7607 52.1113 35.883C52.2909 36.0053 52.3808 36.1609 52.3808 36.3721C52.3808 37.2058 52.4032 37.8839 52.4481 38.4063C52.493 38.9288 52.5604 39.3734 52.6502 39.7514C52.7401 40.1293 52.8299 40.4517 52.9197 40.7296C53.0096 41.0186 53.0994 41.3187 53.1892 41.6411C53.2453 41.9412 53.2341 42.1969 53.1443 42.397C53.0545 42.6082 52.8299 42.6304 52.4706 42.4859C51.8081 42.2525 51.3141 41.7745 50.9997 41.052C50.6853 40.3294 50.4495 39.6847 50.3035 39.0844C50.2698 38.9621 50.2025 38.762 50.0789 38.4619C49.9554 38.1618 49.8881 37.9506 49.8544 37.8394C49.6186 37.7838 49.3266 37.8616 49.001 38.084C48.6754 38.3063 48.3722 38.6175 48.1252 38.9955C47.867 39.3845 47.6985 39.8292 47.6312 40.3405C47.5526 40.8519 47.6536 41.3521 47.9231 41.8634C48.0466 42.0413 48.215 42.2636 48.4396 42.5082C48.6642 42.7638 48.8887 43.0195 49.1133 43.2863C49.3379 43.5531 49.5624 43.8199 49.787 44.0644C50.0116 44.309 50.2025 44.5202 50.3484 44.6647C50.5281 44.8425 50.6516 44.9426 50.7077 44.9537C50.7639 44.9648 50.9211 44.9315 51.1569 44.8425C51.46 44.698 51.9204 44.4979 52.538 44.2645C53.1555 44.0311 53.8068 43.7865 54.4805 43.5531C55.1542 43.3196 55.8054 43.1195 56.423 42.9528C57.0405 42.7861 57.5121 42.7083 57.849 42.7083C58.0623 42.7083 58.2083 42.7861 58.2981 42.9306C58.3879 43.0195 58.3767 43.1418 58.2532 43.2863C58.1297 43.4308 57.9725 43.5864 57.7816 43.7309C57.5907 43.8754 57.3774 44.0088 57.1753 44.1311C56.9619 44.2534 56.8272 44.3201 56.7711 44.3534C56.2546 44.6536 55.6145 44.9871 54.8286 45.365C54.0426 45.7318 53.3689 46.0987 52.7962 46.4544C52.7401 46.51 52.6278 46.5767 52.4594 46.6322C52.2909 46.6878 52.1674 46.7545 52.0776 46.8101C52.4369 47.6105 52.6952 48.3108 52.8411 48.8888C52.9871 49.4668 53.0432 50.0226 52.9983 50.5673C52.9534 51.1009 52.8411 51.6456 52.6615 52.2014C52.4818 52.7572 52.2348 53.3908 51.9429 54.1022C51.5162 54.7914 51.0895 55.4473 50.6516 56.0698C50.2137 56.6923 49.7309 57.2592 49.1807 57.7706C48.6417 58.2819 48.0466 58.6821 47.4178 58.9711C46.789 59.2712 46.0929 59.4157 45.3406 59.4157C44.9139 59.4157 44.5097 59.3602 44.1167 59.2601C43.7237 59.1601 43.3981 58.9377 43.1286 58.6154C42.4324 57.8706 42.0507 57.0591 41.9608 56.181C41.871 55.3028 41.9496 54.4357 42.1854 53.5687C42.3651 53.0351 42.5896 52.546 42.8591 52.0902C43.5216 50.9564 44.2514 50.0004 45.0486 49.2112C45.8571 48.433 46.688 47.6771 47.5638 46.9657ZM49.1021 48.9777C48.7652 49.3112 48.3161 49.7781 47.7434 50.3895C47.1708 51.0009 46.6431 51.6678 46.1378 52.3793C45.6437 53.0907 45.2395 53.8021 44.9251 54.5024C44.6107 55.2027 44.5321 55.803 44.6781 56.3143C45.2844 56.0476 45.902 55.6029 46.5308 54.9915C47.1596 54.3801 47.721 53.7132 48.2038 52.9795C48.6866 52.2459 49.0235 51.5233 49.2144 50.8119C49.4052 50.0893 49.3716 49.478 49.1021 48.9777Z" fill="#FF5196" stroke="white" stroke-miterlimit="10"/>
<path d="M40.2425 65.0625C26.1958 65.0625 14.7653 53.7463 14.7653 39.8401C14.7653 25.9339 26.1958 14.6177 40.2425 14.6177C54.2892 14.6177 65.7197 25.9339 65.7197 39.8401C65.7197 53.7463 54.2892 65.0625 40.2425 65.0625ZM40.2425 15.7293C26.8134 15.7293 15.8881 26.5452 15.8881 39.8401C15.8881 53.1349 26.8134 63.9509 40.2425 63.9509C53.6716 63.9509 64.5968 53.1349 64.5968 39.8401C64.5968 26.5452 53.6716 15.7293 40.2425 15.7293Z" fill="#263238"/>
</g>
</svg>
