<svg width="93" height="37" viewBox="0 0 93 37" fill="none" xmlns="http://www.w3.org/2000/svg">
<path d="M0.951538 22.7435V0H14.4817V22.7324H0.951538V22.7435ZM12.8424 17.4523L13.1905 14.94L11.9329 14.8177L11.5511 16.7519C10.7651 17.141 9.7995 17.33 8.64298 17.33C7.07101 17.33 5.82465 16.8409 4.91515 15.8515C3.99443 14.8622 3.54529 13.5616 3.54529 11.9387C3.54529 10.3602 3.99443 9.05962 4.88147 8.03693C5.76851 7.01425 6.93629 6.50291 8.38475 6.50291C9.12582 6.50291 9.75459 6.59184 10.2599 6.75858C10.7651 6.92532 11.2255 7.14765 11.6634 7.43666L12.034 9.34863L13.314 9.22636L12.9435 6.71412C12.4045 6.25836 11.7645 5.89153 11.0234 5.60251C10.2823 5.32461 9.36161 5.1801 8.27246 5.1801C6.9812 5.1801 5.86959 5.49135 4.93763 6.12497C4.00568 6.75858 3.27583 7.59229 2.75932 8.62609C2.24282 9.671 1.98456 10.7937 1.98456 11.9943C1.98456 13.8951 2.57966 15.4847 3.76987 16.7519C4.96008 18.0192 6.50959 18.6528 8.42964 18.6528C10.316 18.6528 11.7869 18.2526 12.8424 17.4523Z" fill="#263238"/>
<path d="M19.0744 22.7435V0H24.8906V22.7324H19.0744V22.7435ZM19.6919 18.4527H24.2843V17.3078H22.7011V4.61318H19.6695V5.75813H21.2751V17.3078H19.6919V18.4527Z" fill="#263238"/>
<path d="M29.483 22.7435V0H39.7009V22.7324H29.483V22.7435ZM31.3357 10.1823L31.0101 12.2499L32.1891 12.3944L32.5372 10.8493C33.0424 10.6047 33.6151 10.4825 34.2888 10.4825C35.0972 10.4825 35.6474 10.6826 35.9281 11.0827C36.2089 11.4829 36.3436 12.0054 36.3436 12.6501V13.4505C36.0966 13.4282 35.8383 13.406 35.5576 13.3949C35.2769 13.3838 35.0074 13.3727 34.7379 13.3727C33.7274 13.3727 32.7617 13.5505 31.8634 13.9062C30.9652 14.2619 30.5161 15.0067 30.5161 16.1294C30.5161 17.0854 30.8192 17.7413 31.4368 18.097C32.0544 18.4638 32.6607 18.6417 33.2558 18.6417C33.9856 18.6417 34.6144 18.4527 35.1309 18.0748C35.6474 17.6968 36.0516 17.2744 36.3436 16.7853V16.8298C36.366 18.0414 36.9162 18.6417 37.9942 18.6417C38.4096 18.6417 38.8026 18.5416 39.1731 18.3416L39.1507 17.4189C38.971 17.4967 38.7689 17.5412 38.5443 17.5412C38.0278 17.5412 37.7696 17.2188 37.7696 16.5741V12.3166C37.7696 10.3157 36.6916 9.31528 34.5358 9.31528C33.9407 9.31528 33.3793 9.38198 32.8515 9.51537C32.3126 9.65988 31.8073 9.8822 31.3357 10.1823ZM36.3323 15.0956C36.2762 15.8293 35.973 16.4185 35.4229 16.8409C34.8727 17.2744 34.2888 17.4856 33.66 17.4856C33.267 17.4856 32.8853 17.3744 32.5259 17.1632C32.1554 16.952 31.9757 16.5519 31.9757 15.9738C31.9757 15.2735 32.2565 14.8289 32.7954 14.6177C33.3456 14.4065 33.9519 14.3064 34.6369 14.3064C34.94 14.3064 35.232 14.3175 35.5127 14.3509C35.7934 14.3731 36.0741 14.3953 36.3211 14.4065V15.0956H36.3323Z" fill="#263238"/>
<path d="M44.3044 22.7435V0H53.5903V22.7324H44.3044V22.7435ZM52.6134 15.8627C52.6134 15.1512 52.4225 14.6288 52.0407 14.2842C51.659 13.9396 51.1986 13.7061 50.6372 13.5727C50.0758 13.4394 49.5256 13.3282 48.9754 13.2393C48.4252 13.1503 47.9536 13.0058 47.5719 12.8169C47.1901 12.6279 46.9992 12.2944 46.9992 11.8164C46.9992 11.3606 47.1789 11.0272 47.5494 10.8048C47.9199 10.5825 48.3803 10.4825 48.9529 10.4825C49.6154 10.4825 50.233 10.627 50.8057 10.9271L51.0302 12.3722L52.2092 12.2277L51.9846 10.1379C51.6029 9.90444 51.1425 9.71546 50.5923 9.55984C50.0421 9.40421 49.4582 9.31528 48.8294 9.31528C47.9985 9.31528 47.235 9.51537 46.5276 9.90444C45.8203 10.2935 45.4722 10.9605 45.4722 11.9164C45.4722 12.6168 45.663 13.1281 46.0448 13.4505C46.4266 13.784 46.8982 14.0063 47.4708 14.1397C48.0435 14.2731 48.6049 14.3842 49.1663 14.4843C49.7277 14.5732 50.1993 14.7288 50.5811 14.9289C50.9628 15.129 51.1537 15.4736 51.1537 15.9738C51.1537 16.4852 50.9067 16.8631 50.4126 17.1077C49.9186 17.3522 49.3572 17.4745 48.7172 17.4745C47.9985 17.4745 47.3248 17.33 46.7073 17.0299L46.7634 15.8404L45.6294 15.7182L45.3486 17.7524C45.7416 18.0081 46.2581 18.2193 46.8869 18.386C47.5157 18.5528 48.1445 18.6417 48.7845 18.6417C49.8737 18.6417 50.7832 18.3971 51.513 17.8969C52.2429 17.4189 52.6134 16.7297 52.6134 15.8627Z" fill="#263238"/>
<path d="M58.183 22.7435V0H67.4688V22.7324H58.183V22.7435ZM66.4919 15.8627C66.4919 15.1512 66.301 14.6288 65.9193 14.2842C65.5375 13.9396 65.0772 13.7061 64.5157 13.5727C63.9543 13.4394 63.4041 13.3282 62.854 13.2393C62.3038 13.1503 61.8322 13.0058 61.4504 12.8169C61.0686 12.6279 60.8778 12.2944 60.8778 11.8164C60.8778 11.3606 61.0574 11.0272 61.4279 10.8048C61.7985 10.5825 62.2588 10.4825 62.8315 10.4825C63.494 10.4825 64.1115 10.627 64.6842 10.9271L64.9088 12.3722L66.0877 12.2277L65.8632 10.1379C65.4814 9.90444 65.021 9.71546 64.4708 9.55984C63.9207 9.40421 63.3368 9.31528 62.708 9.31528C61.8771 9.31528 61.1136 9.51537 60.4062 9.90444C59.6988 10.2935 59.3507 10.9605 59.3507 11.9164C59.3507 12.6168 59.5416 13.1281 59.9234 13.4505C60.3051 13.784 60.7767 14.0063 61.3494 14.1397C61.922 14.2731 62.4834 14.3842 63.0448 14.4843C63.6062 14.5732 64.0778 14.7288 64.4596 14.9289C64.8414 15.129 65.0323 15.4736 65.0323 15.9738C65.0323 16.4852 64.7853 16.8631 64.2912 17.1077C63.7972 17.3522 63.2357 17.4745 62.5957 17.4745C61.8771 17.4745 61.2034 17.33 60.5858 17.0299L60.642 15.8404L59.5079 15.7182L59.2272 17.7524C59.6202 18.0081 60.1367 18.2193 60.7655 18.386C61.3943 18.5528 62.0231 18.6417 62.6631 18.6417C63.7522 18.6417 64.6617 18.3971 65.3916 17.8969C66.1214 17.4189 66.4919 16.7297 66.4919 15.8627Z" fill="#263238"/>
<path d="M72.0611 22.7435V0H78.1805V22.7324H72.0611V22.7435ZM72.9593 18.4527H77.5518V17.3078H75.9685V9.50426H72.9257V10.6492H74.5537V17.3078H72.9706V18.4527H72.9593ZM74.3966 5.35796V7.19211H75.9461V5.35796H74.3966Z" fill="#263238"/>
<path d="M82.7728 22.7435V0H92.5527V22.7324H82.7728V22.7435ZM91.6769 15.4403L90.453 15.1735C90.1835 16.6853 89.3639 17.4411 88.0165 17.4411C87.1182 17.4411 86.4332 17.141 85.9617 16.5407C85.4901 15.9405 85.2543 15.0957 85.2543 14.0285C85.2543 13.0614 85.4676 12.2388 85.883 11.5496C86.2985 10.8604 86.9946 10.5269 87.9603 10.5269C88.7013 10.5269 89.3526 10.6937 89.8916 11.0272L90.2397 12.5389L91.4186 12.3944L91.0705 10.2379C90.6102 9.89332 90.1274 9.64877 89.6221 9.51537C89.1168 9.38198 88.5666 9.31528 87.9715 9.31528C86.568 9.31528 85.5013 9.80439 84.8051 10.7826C84.0977 11.7608 83.7496 12.8724 83.7496 14.1063C83.7496 15.5403 84.1202 16.663 84.8725 17.4523C85.6135 18.2526 86.6129 18.6528 87.8593 18.6528C89.1056 18.6528 90.0263 18.3082 90.6102 17.6301C91.1941 16.9409 91.5533 16.2184 91.6769 15.4403Z" fill="#263238"/>
<path d="M6.8016 35.1599C6.54334 35.6268 6.16157 35.9936 5.66752 36.2493C5.16224 36.505 4.56713 36.6384 3.87097 36.6384H1.86108V30.3689H3.87097C4.56713 30.3689 5.17347 30.4912 5.66752 30.7468C6.16157 31.0025 6.54334 31.3582 6.8016 31.8362C7.05985 32.3142 7.18336 32.8589 7.18336 33.5036C7.18336 34.1373 7.05985 34.6931 6.8016 35.1599ZM5.68996 35.2822C6.12787 34.8598 6.34123 34.2706 6.34123 33.5036C6.34123 32.7366 6.12787 32.1475 5.68996 31.7251C5.25206 31.3026 4.62327 31.0914 3.79237 31.0914H2.65832V35.9158H3.79237C4.62327 35.9158 5.25206 35.7046 5.68996 35.2822Z" fill="#FF5196"/>
<path d="M11.3492 31.0247V33.1702H13.7521V33.7926H11.3492V35.9825H14.0216V36.6384H10.5295V30.3689H14.0216V31.0247H11.3492Z" fill="#FF5196"/>
<path d="M21.118 35.8381C20.9721 36.0937 20.7587 36.3049 20.4668 36.4606C20.1748 36.6162 19.8155 36.7051 19.3776 36.7051C18.9622 36.7051 18.5804 36.6273 18.2548 36.4828C17.9291 36.3272 17.6709 36.1271 17.4688 35.8603C17.2779 35.5935 17.1656 35.2934 17.1319 34.9599H18.0077C18.0302 35.1377 18.0863 35.3156 18.1874 35.4823C18.2885 35.6491 18.4456 35.7936 18.6365 35.9048C18.8274 36.0159 19.0632 36.0715 19.3439 36.0715C19.7032 36.0715 19.984 35.9826 20.1748 35.7825C20.3657 35.5824 20.4668 35.349 20.4668 35.0488C20.4668 34.7931 20.3994 34.5819 20.2647 34.4263C20.1299 34.2707 19.9615 34.1373 19.7706 34.0484C19.5797 33.9594 19.299 33.8594 18.9622 33.7482C18.5579 33.6148 18.2436 33.4926 17.9965 33.3814C17.7495 33.2702 17.5474 33.0924 17.379 32.8589C17.2105 32.6255 17.1207 32.3254 17.1207 31.9474C17.1207 31.6251 17.1993 31.336 17.3565 31.0804C17.5137 30.8358 17.7383 30.6357 18.0414 30.5023C18.3334 30.3689 18.6927 30.3022 19.0857 30.3022C19.7033 30.3022 20.2085 30.4468 20.5678 30.7469C20.9383 31.047 21.1405 31.425 21.2078 31.8918H20.332C20.2871 31.6473 20.1524 31.425 19.9503 31.236C19.7369 31.047 19.4562 30.947 19.0969 30.947C18.7713 30.947 18.5018 31.0359 18.3109 31.2027C18.1088 31.3694 18.019 31.6139 18.019 31.9141C18.019 32.1586 18.0864 32.3587 18.2099 32.5032C18.3446 32.6589 18.5018 32.77 18.6927 32.8589C18.8836 32.9479 19.153 33.0368 19.4787 33.148C19.8829 33.2814 20.2085 33.4036 20.4668 33.5259C20.7138 33.6482 20.9271 33.826 21.0955 34.0595C21.264 34.2929 21.3538 34.6153 21.3538 35.0155C21.3314 35.3045 21.264 35.5824 21.118 35.8381Z" fill="#FF5196"/>
<path d="M25.4968 30.3689V36.6384H24.6771V30.3689H25.4968Z" fill="#FF5196"/>
<path d="M33.7834 30.8469C34.2887 31.2138 34.6255 31.7029 34.7939 32.3254H33.9294C33.7834 31.9474 33.5251 31.6362 33.1771 31.4139C32.829 31.1804 32.4135 31.0693 31.9307 31.0693C31.504 31.0693 31.111 31.1693 30.7742 31.3694C30.4373 31.5695 30.1679 31.8474 29.9658 32.2142C29.7749 32.581 29.6738 33.0146 29.6738 33.5148C29.6738 34.0261 29.7749 34.4708 29.9658 34.8376C30.1566 35.2044 30.4373 35.4935 30.7854 35.6936C31.1335 35.8936 31.5377 35.9937 31.9981 35.9937C32.3911 35.9937 32.7391 35.9048 33.0648 35.7491C33.3904 35.5824 33.6486 35.3378 33.862 35.0266C34.0753 34.7153 34.1876 34.3374 34.2325 33.915H31.7398V33.3147H34.9174V34.0595C34.8613 34.5597 34.7041 35.0044 34.4459 35.4157C34.1876 35.8269 33.8395 36.1382 33.4016 36.3716C32.9637 36.6051 32.4697 36.7273 31.9082 36.7273C31.3019 36.7273 30.7629 36.594 30.2914 36.3272C29.8198 36.0604 29.4605 35.6824 29.2022 35.1933C28.944 34.7153 28.8092 34.1595 28.8092 33.537C28.8092 32.9145 28.944 32.3587 29.2022 31.8807C29.4605 31.4027 29.831 31.0137 30.2914 30.7469C30.7517 30.4801 31.2907 30.3356 31.897 30.3356C32.6605 30.3134 33.2781 30.4912 33.7834 30.8469Z" fill="#FF5196"/>
<path d="M43.204 36.6384H42.3843L39.0944 31.6806V36.6384H38.2747V30.3689H39.0944L42.3843 35.3267V30.3689H43.204V36.6384Z" fill="#FF5196"/>
<path d="M55.016 35.8381C54.87 36.0937 54.6567 36.3049 54.3647 36.4606C54.0728 36.6162 53.7135 36.7051 53.2756 36.7051C52.8602 36.7051 52.4784 36.6273 52.1528 36.4828C51.8272 36.3272 51.5689 36.1271 51.3668 35.8603C51.1759 35.5935 51.0636 35.2934 51.0299 34.9599H51.9057C51.9282 35.1377 51.9844 35.3156 52.0854 35.4823C52.1865 35.6491 52.3436 35.7936 52.5345 35.9048C52.7254 36.0159 52.9612 36.0715 53.2419 36.0715C53.6012 36.0715 53.8819 35.9826 54.0728 35.7825C54.2637 35.5824 54.3647 35.349 54.3647 35.0488C54.3647 34.7931 54.2974 34.5819 54.1626 34.4263C54.0279 34.2707 53.8595 34.1373 53.6686 34.0484C53.4777 33.9594 53.197 33.8594 52.8602 33.7482C52.456 33.6148 52.1415 33.4926 51.8945 33.3814C51.6475 33.2702 51.4454 33.0924 51.2769 32.8589C51.1085 32.6255 51.0187 32.3254 51.0187 31.9474C51.0187 31.6251 51.0973 31.336 51.2545 31.0804C51.4117 30.8358 51.6363 30.6357 51.9394 30.5023C52.2314 30.3689 52.5907 30.3022 52.9837 30.3022C53.6012 30.3022 54.1065 30.4468 54.4658 30.7469C54.8364 31.047 55.0385 31.425 55.1059 31.8918H54.23C54.1851 31.6473 54.0503 31.425 53.8482 31.236C53.6349 31.047 53.3542 30.947 52.9949 30.947C52.6693 30.947 52.3998 31.0359 52.2089 31.2027C52.0068 31.3694 51.917 31.6139 51.917 31.9141C51.917 32.1586 51.9843 32.3587 52.1078 32.5032C52.2426 32.6589 52.3998 32.77 52.5906 32.8589C52.7815 32.9479 53.051 33.0368 53.3766 33.148C53.7809 33.2814 54.1065 33.4036 54.3647 33.5259C54.6118 33.6482 54.8251 33.826 54.9935 34.0595C55.162 34.2929 55.2518 34.6153 55.2518 35.0155C55.2293 35.3045 55.162 35.5824 55.016 35.8381Z" fill="#FF5196"/>
<path d="M62.4605 30.3689V31.0247H60.6751V36.6384H59.8442V31.0247H58.0589V30.3689H62.4605Z" fill="#FF5196"/>
<path d="M66.2789 30.3689V34.1261C66.2789 34.7375 66.4137 35.1933 66.6944 35.4934C66.9751 35.7824 67.3456 35.9381 67.8397 35.9381C68.3225 35.9381 68.693 35.7935 68.9625 35.4934C69.232 35.1933 69.3667 34.7486 69.3667 34.1373V30.38H70.1864V34.1373C70.1864 34.9932 69.9731 35.6379 69.5464 36.0603C69.1197 36.4939 68.5471 36.7051 67.8284 36.7051C67.1211 36.7051 66.5485 36.4939 66.1218 36.0603C65.6951 35.6268 65.4818 34.9932 65.4818 34.1373V30.38H66.2789V30.3689Z" fill="#FF5196"/>
<path d="M78.6407 35.1599C78.3824 35.6268 78.0007 35.9936 77.5066 36.2493C77.0013 36.505 76.4063 36.6384 75.7101 36.6384H73.7003V30.3689H75.7101C76.4063 30.3689 77.0126 30.4912 77.5066 30.7468C78.0007 31.0025 78.3824 31.3582 78.6407 31.8362C78.899 32.3142 79.0225 32.8589 79.0225 33.5036C79.0225 34.1373 78.899 34.6931 78.6407 35.1599ZM77.5403 35.2822C77.9782 34.8598 78.1916 34.2706 78.1916 33.5036C78.1916 32.7366 77.9782 32.1475 77.5403 31.7251C77.1024 31.3026 76.4736 31.0914 75.6427 31.0914H74.5087V35.9158H75.6427C76.4624 35.9158 77.1024 35.7046 77.5403 35.2822Z" fill="#FF5196"/>
<path d="M83.1992 30.3689V36.6384H82.3795V30.3689H83.1992Z" fill="#FF5196"/>
<path d="M91.239 30.7026C91.7106 30.9805 92.0811 31.3584 92.3506 31.8475C92.62 32.3366 92.7548 32.8924 92.7548 33.5038C92.7548 34.1152 92.62 34.671 92.3506 35.1601C92.0811 35.6492 91.7106 36.0272 91.239 36.3051C90.7674 36.583 90.2396 36.7164 89.6557 36.7164C89.0718 36.7164 88.5329 36.583 88.0613 36.3051C87.5897 36.0272 87.208 35.6492 86.9385 35.1601C86.669 34.671 86.5343 34.1152 86.5343 33.5038C86.5343 32.8924 86.669 32.3366 86.9385 31.8475C87.208 31.3584 87.5785 30.9805 88.0613 30.7026C88.5441 30.4247 89.0718 30.2913 89.6557 30.2913C90.2396 30.2913 90.7674 30.4247 91.239 30.7026ZM88.4768 31.3473C88.1287 31.5474 87.8592 31.8253 87.6683 32.2032C87.4775 32.5701 87.3764 33.0036 87.3764 33.5038C87.3764 33.9929 87.4775 34.4264 87.6683 34.8044C87.8592 35.1823 88.1287 35.4602 88.4768 35.6603C88.8248 35.8604 89.2066 35.9605 89.6445 35.9605C90.0712 35.9605 90.4642 35.8604 90.8123 35.6603C91.1604 35.4602 91.4298 35.1712 91.6207 34.8044C91.8116 34.4376 91.9126 34.004 91.9126 33.5149C91.9126 33.0147 91.8116 32.5812 91.6207 32.2143C91.4298 31.8475 91.1604 31.5585 90.8123 31.3584C90.4642 31.1583 90.0824 31.0583 89.6445 31.0583C89.2178 31.0472 88.8248 31.1472 88.4768 31.3473Z" fill="#FF5196"/>
</svg>
