<svg width="76" height="76" viewBox="0 0 76 76" fill="none" xmlns="http://www.w3.org/2000/svg">
<path d="M29.6875 34.5861C30.0497 34.3735 30.3498 34.0698 30.5582 33.7052C30.7665 33.3407 30.8757 32.9279 30.875 32.5079V11.1329C30.8783 10.7504 30.7892 10.3726 30.6151 10.0319C30.4411 9.6912 30.1873 9.39758 29.8754 9.17603C29.5635 8.95448 29.2026 8.81156 28.8236 8.75944C28.4446 8.70733 28.0586 8.74755 27.6984 8.87669C21.6856 11.0186 16.4816 14.9664 12.7988 20.1798C9.116 25.3931 7.13432 31.6172 7.125 38.0001C7.12822 39.8915 7.29709 41.7789 7.62969 43.6408C7.70105 44.0127 7.85924 44.3625 8.09139 44.6617C8.32355 44.9609 8.62309 45.2011 8.96563 45.3626C9.28173 45.5116 9.62562 45.5926 9.975 45.6001C10.3927 45.5976 10.8023 45.4849 11.1625 45.2736L29.6875 34.5861ZM26.125 14.7251V31.1423L11.9047 39.3658C11.875 38.8908 11.875 38.4454 11.875 38.0001C11.8841 33.1861 13.2187 28.4676 15.7323 24.362C18.246 20.2564 21.8416 16.9222 26.125 14.7251Z" fill="#C9CDFF"/>
<path d="M64.8078 22.6813C64.7771 22.6481 64.7565 22.6069 64.7484 22.5625L64.6297 22.4141C61.9127 17.762 58.0246 13.9027 53.3526 11.2203C48.6805 8.53793 43.3873 7.12597 38 7.125C37.3701 7.125 36.766 7.37522 36.3206 7.82062C35.8752 8.26602 35.625 8.87011 35.625 9.5V36.6344L12.1422 50.2016C11.8685 50.3528 11.6278 50.5573 11.4342 50.8029C11.2407 51.0486 11.0983 51.3304 11.0153 51.6319C10.9323 51.9334 10.9105 52.2485 10.951 52.5586C10.9916 52.8687 11.0938 53.1675 11.2515 53.4375V53.4969L11.3406 53.6453C14.7652 59.5076 20.0266 64.0777 26.3105 66.6482C32.5944 69.2187 39.5503 69.6463 46.1017 67.8648C52.6531 66.0832 58.4346 62.192 62.5514 56.7932C66.6682 51.3945 68.8907 44.7893 68.875 38C68.8822 32.6259 67.4798 27.344 64.8078 22.6813Z" fill="#7782FF"/>
</svg>
