<svg width="76" height="76" viewBox="0 0 76 76" fill="none" xmlns="http://www.w3.org/2000/svg">
<circle cx="37.5" cy="35.125" r="19" fill="#FFE1BC"/>
<path d="M61.25 8H13.75C12.4902 8 11.282 8.50044 10.3912 9.39124C9.50044 10.282 9 11.4902 9 12.75V30.1766C9 56.7172 31.5031 65.5344 36.0156 67.0187C36.973 67.376 38.027 67.376 38.9844 67.0187C43.4969 65.5344 66 56.7172 66 30.1766V12.75C66 11.4902 65.4996 10.282 64.6088 9.39124C63.718 8.50044 62.5098 8 61.25 8ZM49.5234 35.075L41.3297 37.7469L46.4062 44.7234C46.5895 44.9742 46.7211 45.2588 46.7935 45.5608C46.8659 45.8628 46.8776 46.1762 46.8279 46.4828C46.7781 46.7893 46.668 47.083 46.5039 47.3467C46.3398 47.6103 46.125 47.8388 45.8719 48.0187C45.4731 48.3288 44.9817 48.4961 44.4766 48.4937C44.1012 48.4903 43.7316 48.4001 43.3969 48.2301C43.0621 48.0602 42.7712 47.8151 42.5469 47.5141L37.5 40.5375L32.4531 47.5141C32.2288 47.8151 31.9379 48.0602 31.6031 48.2301C31.2684 48.4001 30.8988 48.4903 30.5234 48.4937C30.0183 48.4961 29.5269 48.3288 29.1281 48.0187C28.875 47.8388 28.6602 47.6103 28.4961 47.3467C28.332 47.083 28.2219 46.7893 28.1721 46.4828C28.1224 46.1762 28.1341 45.8628 28.2065 45.5608C28.2789 45.2588 28.4105 44.9742 28.5938 44.7234L33.6703 37.7469L25.4766 35.075C24.8796 34.884 24.3823 34.4648 24.0931 33.9086C23.8039 33.3525 23.7463 32.7047 23.9328 32.1062C24.1302 31.507 24.5551 31.0094 25.116 30.7206C25.6769 30.4318 26.3289 30.3751 26.9312 30.5625L35.125 33.2344V24.625C35.125 23.9951 35.3752 23.391 35.8206 22.9456C36.266 22.5002 36.8701 22.25 37.5 22.25C38.1299 22.25 38.734 22.5002 39.1794 22.9456C39.6248 23.391 39.875 23.9951 39.875 24.625V33.2344L48.0688 30.5625C48.6711 30.3751 49.3231 30.4318 49.884 30.7206C50.4449 31.0094 50.8698 31.507 51.0672 32.1062C51.2537 32.7047 51.1961 33.3525 50.9069 33.9086C50.6177 34.4648 50.1204 34.884 49.5234 35.075Z" fill="#FEBA66"/>
</svg>
