<svg xmlns="http://www.w3.org/2000/svg" xmlns:xlink="http://www.w3.org/1999/xlink" width="100" zoomAndPan="magnify" viewBox="0 0 75 74.999997" height="100" preserveAspectRatio="xMidYMid meet" version="1.0"><defs><clipPath id="b959354519"><path d="M 5.25 0 L 60 0 L 60 66 L 5.25 66 Z M 5.25 0 " clip-rule="nonzero"/></clipPath><clipPath id="375d372a7d"><path d="M 41 46 L 69.75 46 L 69.75 75 L 41 75 Z M 41 46 " clip-rule="nonzero"/></clipPath></defs><g clip-path="url(#b959354519)"><path fill="#ffefdc" d="M 7.613281 0 L 56.839844 0 C 57.152344 0 57.449219 0.0585938 57.734375 0.179688 C 58.023438 0.296875 58.273438 0.464844 58.496094 0.683594 C 58.714844 0.90625 58.882812 1.15625 59 1.445312 C 59.121094 1.730469 59.179688 2.027344 59.179688 2.339844 L 59.179688 63.285156 C 59.179688 63.597656 59.121094 63.894531 59 64.179688 C 58.882812 64.46875 58.714844 64.71875 58.496094 64.941406 C 58.273438 65.160156 58.023438 65.328125 57.734375 65.445312 C 57.449219 65.566406 57.152344 65.625 56.839844 65.625 L 7.613281 65.625 C 7.300781 65.625 7.003906 65.566406 6.71875 65.445312 C 6.429688 65.328125 6.179688 65.160156 5.957031 64.941406 C 5.738281 64.71875 5.570312 64.46875 5.453125 64.179688 C 5.332031 63.894531 5.273438 63.597656 5.273438 63.285156 L 5.273438 2.339844 C 5.273438 2.027344 5.332031 1.730469 5.453125 1.445312 C 5.570312 1.15625 5.738281 0.90625 5.957031 0.683594 C 6.179688 0.464844 6.429688 0.296875 6.71875 0.179688 C 7.003906 0.0585938 7.300781 0 7.613281 0 Z M 7.613281 0 " fill-opacity="1" fill-rule="nonzero"/></g><path fill="#00a3ea" d="M 37.816406 39.929688 C 37.410156 39.25 36.925781 38.628906 36.367188 38.066406 C 35.804688 37.503906 35.183594 37.023438 34.496094 36.625 L 33.054688 38.066406 C 32.835938 38.289062 32.664062 38.539062 32.546875 38.828125 C 32.429688 39.113281 32.371094 39.414062 32.371094 39.722656 C 32.371094 40.035156 32.429688 40.332031 32.546875 40.621094 C 32.664062 40.90625 32.835938 41.160156 33.054688 41.382812 C 33.269531 41.597656 33.464844 41.835938 33.632812 42.09375 C 33.804688 42.347656 33.949219 42.617188 34.066406 42.902344 C 34.183594 43.1875 34.273438 43.480469 34.332031 43.78125 C 34.390625 44.082031 34.421875 44.386719 34.421875 44.695312 C 34.421875 45.003906 34.390625 45.308594 34.332031 45.609375 C 34.273438 45.910156 34.183594 46.207031 34.066406 46.488281 C 33.949219 46.773438 33.804688 47.042969 33.632812 47.300781 C 33.464844 47.554688 33.269531 47.792969 33.054688 48.011719 L 28.082031 52.984375 C 27.863281 53.199219 27.625 53.394531 27.371094 53.566406 C 27.113281 53.734375 26.84375 53.878906 26.5625 53.996094 C 26.277344 54.117188 25.984375 54.203125 25.679688 54.265625 C 25.378906 54.324219 25.074219 54.355469 24.765625 54.355469 C 24.460938 54.355469 24.15625 54.324219 23.851562 54.265625 C 23.550781 54.203125 23.257812 54.113281 22.972656 53.996094 C 22.691406 53.878906 22.417969 53.734375 22.164062 53.5625 C 21.90625 53.394531 21.671875 53.199219 21.453125 52.980469 C 21.234375 52.761719 21.042969 52.527344 20.871094 52.269531 C 20.699219 52.015625 20.554688 51.746094 20.4375 51.460938 C 20.320312 51.175781 20.230469 50.882812 20.171875 50.582031 C 20.109375 50.28125 20.082031 49.976562 20.082031 49.667969 C 20.082031 49.359375 20.109375 49.054688 20.171875 48.753906 C 20.230469 48.453125 20.320312 48.160156 20.4375 47.875 C 20.554688 47.589844 20.699219 47.320312 20.871094 47.0625 C 21.039062 46.808594 21.234375 46.570312 21.453125 46.351562 L 23.804688 44 C 23.050781 42.082031 22.820312 40.105469 23.109375 38.066406 L 18.136719 43.039062 C 17.703125 43.472656 17.3125 43.949219 16.972656 44.460938 C 16.628906 44.972656 16.339844 45.511719 16.105469 46.082031 C 15.871094 46.648438 15.691406 47.234375 15.570312 47.839844 C 15.453125 48.441406 15.390625 49.050781 15.390625 49.667969 C 15.390625 50.285156 15.453125 50.894531 15.570312 51.496094 C 15.691406 52.101562 15.871094 52.6875 16.105469 53.253906 C 16.339844 53.824219 16.628906 54.363281 16.972656 54.875 C 17.3125 55.386719 17.703125 55.863281 18.136719 56.296875 C 18.574219 56.734375 19.046875 57.121094 19.558594 57.464844 C 20.070312 57.804688 20.609375 58.09375 21.179688 58.328125 C 21.746094 58.566406 22.335938 58.742188 22.9375 58.863281 C 23.542969 58.984375 24.152344 59.042969 24.765625 59.042969 C 25.382812 59.042969 25.992188 58.984375 26.597656 58.863281 C 27.199219 58.742188 27.785156 58.566406 28.355469 58.328125 C 28.921875 58.09375 29.464844 57.804688 29.976562 57.464844 C 30.488281 57.121094 30.960938 56.734375 31.394531 56.296875 L 36.375 51.316406 C 37.238281 50.457031 37.902344 49.464844 38.371094 48.34375 C 39.207031 46.367188 39.34375 44.347656 38.789062 42.277344 C 38.574219 41.449219 38.25 40.667969 37.816406 39.929688 Z M 37.816406 39.929688 " fill-opacity="1" fill-rule="nonzero"/><path fill="#00a3ea" d="M 46.316406 28.121094 C 45.878906 27.683594 45.40625 27.296875 44.894531 26.957031 C 44.382812 26.613281 43.839844 26.324219 43.273438 26.089844 C 42.703125 25.855469 42.117188 25.679688 41.515625 25.558594 C 40.910156 25.4375 40.300781 25.378906 39.6875 25.378906 C 39.070312 25.378906 38.460938 25.4375 37.859375 25.558594 C 37.253906 25.679688 36.667969 25.855469 36.097656 26.089844 C 35.53125 26.324219 34.992188 26.613281 34.480469 26.957031 C 33.964844 27.296875 33.492188 27.683594 33.058594 28.121094 L 28.078125 33.097656 C 27.214844 33.960938 26.550781 34.953125 26.082031 36.074219 C 25.246094 38.046875 25.109375 40.070312 25.664062 42.140625 C 25.878906 42.96875 26.203125 43.75 26.636719 44.484375 C 27.042969 45.167969 27.527344 45.789062 28.085938 46.347656 C 28.648438 46.910156 29.269531 47.390625 29.957031 47.792969 L 31.398438 46.347656 C 31.617188 46.128906 31.789062 45.875 31.90625 45.589844 C 32.023438 45.300781 32.082031 45.003906 32.082031 44.691406 C 32.082031 44.382812 32.023438 44.082031 31.90625 43.796875 C 31.789062 43.507812 31.617188 43.253906 31.398438 43.035156 C 31.183594 42.816406 30.988281 42.582031 30.820312 42.324219 C 30.648438 42.066406 30.503906 41.796875 30.386719 41.511719 C 30.269531 41.230469 30.179688 40.9375 30.121094 40.632812 C 30.058594 40.332031 30.03125 40.027344 30.03125 39.71875 C 30.03125 39.414062 30.058594 39.109375 30.121094 38.804688 C 30.179688 38.503906 30.269531 38.210938 30.386719 37.925781 C 30.503906 37.644531 30.648438 37.371094 30.820312 37.117188 C 30.988281 36.859375 31.183594 36.625 31.398438 36.40625 L 36.371094 31.433594 C 36.589844 31.214844 36.828125 31.023438 37.082031 30.851562 C 37.339844 30.679688 37.609375 30.535156 37.890625 30.417969 C 38.175781 30.300781 38.46875 30.210938 38.773438 30.152344 C 39.074219 30.089844 39.378906 30.0625 39.6875 30.0625 C 39.996094 30.0625 40.300781 30.089844 40.601562 30.152344 C 40.902344 30.210938 41.195312 30.300781 41.480469 30.417969 C 41.765625 30.535156 42.035156 30.679688 42.289062 30.851562 C 42.546875 31.023438 42.785156 31.214844 43 31.433594 C 43.21875 31.652344 43.414062 31.886719 43.582031 32.144531 C 43.753906 32.398438 43.898438 32.671875 44.015625 32.953125 C 44.136719 33.238281 44.222656 33.53125 44.285156 33.835938 C 44.34375 34.136719 44.375 34.441406 44.375 34.75 C 44.375 35.054688 44.34375 35.359375 44.285156 35.664062 C 44.222656 35.964844 44.136719 36.257812 44.015625 36.542969 C 43.898438 36.828125 43.753906 37.097656 43.582031 37.351562 C 43.414062 37.609375 43.21875 37.84375 43 38.0625 L 40.648438 40.417969 C 41.402344 42.332031 41.632812 44.3125 41.34375 46.347656 L 46.316406 41.378906 C 46.75 40.941406 47.136719 40.46875 47.480469 39.957031 C 47.820312 39.445312 48.109375 38.902344 48.34375 38.335938 C 48.578125 37.765625 48.757812 37.179688 48.875 36.578125 C 48.996094 35.972656 49.054688 35.363281 49.054688 34.75 C 49.054688 34.132812 48.996094 33.523438 48.875 32.921875 C 48.757812 32.316406 48.578125 31.730469 48.34375 31.160156 C 48.109375 30.59375 47.820312 30.054688 47.480469 29.539062 C 47.136719 29.027344 46.75 28.554688 46.316406 28.121094 Z M 46.316406 28.121094 " fill-opacity="1" fill-rule="nonzero"/><path fill="#9e389e" d="M 18.164062 16.40625 L 46.289062 16.40625 C 46.601562 16.40625 46.898438 16.464844 47.1875 16.585938 C 47.472656 16.703125 47.726562 16.871094 47.945312 17.09375 C 48.167969 17.3125 48.335938 17.566406 48.453125 17.851562 C 48.574219 18.140625 48.632812 18.4375 48.632812 18.75 C 48.632812 19.0625 48.574219 19.359375 48.453125 19.648438 C 48.335938 19.933594 48.167969 20.1875 47.945312 20.40625 C 47.726562 20.628906 47.472656 20.796875 47.1875 20.914062 C 46.898438 21.035156 46.601562 21.09375 46.289062 21.09375 L 18.164062 21.09375 C 17.851562 21.09375 17.554688 21.035156 17.265625 20.914062 C 16.980469 20.796875 16.726562 20.628906 16.507812 20.40625 C 16.285156 20.1875 16.117188 19.933594 16 19.648438 C 15.878906 19.359375 15.820312 19.0625 15.820312 18.75 C 15.820312 18.4375 15.878906 18.140625 16 17.851562 C 16.117188 17.566406 16.285156 17.3125 16.507812 17.09375 C 16.726562 16.871094 16.980469 16.703125 17.265625 16.585938 C 17.554688 16.464844 17.851562 16.40625 18.164062 16.40625 Z M 18.164062 16.40625 " fill-opacity="1" fill-rule="nonzero"/><path fill="#9e389e" d="M 18.164062 7.03125 L 46.289062 7.03125 C 46.601562 7.03125 46.898438 7.089844 47.1875 7.210938 C 47.472656 7.328125 47.726562 7.496094 47.945312 7.71875 C 48.167969 7.9375 48.335938 8.191406 48.453125 8.476562 C 48.574219 8.765625 48.632812 9.0625 48.632812 9.375 C 48.632812 9.6875 48.574219 9.984375 48.453125 10.273438 C 48.335938 10.558594 48.167969 10.8125 47.945312 11.03125 C 47.726562 11.253906 47.472656 11.421875 47.1875 11.539062 C 46.898438 11.660156 46.601562 11.71875 46.289062 11.71875 L 18.164062 11.71875 C 17.851562 11.71875 17.554688 11.660156 17.265625 11.539062 C 16.980469 11.421875 16.726562 11.253906 16.507812 11.03125 C 16.285156 10.8125 16.117188 10.558594 16 10.273438 C 15.878906 9.984375 15.820312 9.6875 15.820312 9.375 C 15.820312 9.0625 15.878906 8.765625 16 8.476562 C 16.117188 8.191406 16.285156 7.9375 16.507812 7.71875 C 16.726562 7.496094 16.980469 7.328125 17.265625 7.210938 C 17.554688 7.089844 17.851562 7.03125 18.164062 7.03125 Z M 18.164062 7.03125 " fill-opacity="1" fill-rule="nonzero"/><g clip-path="url(#375d372a7d)"><path fill="#9e389e" d="M 69.726562 60.9375 C 69.726562 61.859375 69.636719 62.773438 69.457031 63.679688 C 69.277344 64.585938 69.007812 65.464844 68.65625 66.320312 C 68.304688 67.171875 67.871094 67.984375 67.355469 68.75 C 66.84375 69.519531 66.261719 70.226562 65.609375 70.882812 C 64.953125 71.535156 64.246094 72.117188 63.476562 72.628906 C 62.710938 73.144531 61.898438 73.578125 61.046875 73.929688 C 60.191406 74.28125 59.3125 74.550781 58.40625 74.730469 C 57.5 74.910156 56.585938 75 55.664062 75 C 54.742188 75 53.828125 74.910156 52.921875 74.730469 C 52.015625 74.550781 51.136719 74.28125 50.28125 73.929688 C 49.429688 73.578125 48.617188 73.144531 47.851562 72.628906 C 47.082031 72.117188 46.375 71.535156 45.71875 70.882812 C 45.066406 70.226562 44.484375 69.519531 43.972656 68.75 C 43.457031 67.984375 43.023438 67.171875 42.671875 66.320312 C 42.320312 65.464844 42.050781 64.585938 41.871094 63.679688 C 41.691406 62.773438 41.601562 61.859375 41.601562 60.9375 C 41.601562 60.015625 41.691406 59.101562 41.871094 58.195312 C 42.050781 57.289062 42.320312 56.410156 42.671875 55.554688 C 43.023438 54.703125 43.457031 53.890625 43.972656 53.125 C 44.484375 52.355469 45.066406 51.648438 45.71875 50.992188 C 46.375 50.339844 47.082031 49.757812 47.851562 49.246094 C 48.617188 48.730469 49.429688 48.296875 50.28125 47.945312 C 51.136719 47.59375 52.015625 47.324219 52.921875 47.144531 C 53.828125 46.964844 54.742188 46.875 55.664062 46.875 C 56.585938 46.875 57.5 46.964844 58.40625 47.144531 C 59.3125 47.324219 60.191406 47.59375 61.046875 47.945312 C 61.898438 48.296875 62.710938 48.730469 63.476562 49.246094 C 64.246094 49.757812 64.953125 50.339844 65.609375 50.992188 C 66.261719 51.648438 66.84375 52.355469 67.355469 53.125 C 67.871094 53.890625 68.304688 54.703125 68.65625 55.554688 C 69.007812 56.410156 69.277344 57.289062 69.457031 58.195312 C 69.636719 59.101562 69.726562 60.015625 69.726562 60.9375 Z M 69.726562 60.9375 " fill-opacity="1" fill-rule="nonzero"/></g><path fill="#ffc719" d="M 52.589844 68.011719 C 51.945312 68.011719 51.390625 67.78125 50.933594 67.324219 L 47.621094 64.007812 C 47.402344 63.789062 47.230469 63.535156 47.113281 63.25 C 46.992188 62.960938 46.933594 62.664062 46.933594 62.351562 C 46.933594 62.042969 46.992188 61.742188 47.113281 61.457031 C 47.230469 61.167969 47.402344 60.914062 47.621094 60.695312 C 47.839844 60.476562 48.09375 60.304688 48.378906 60.1875 C 48.667969 60.070312 48.964844 60.007812 49.277344 60.007812 C 49.589844 60.007812 49.886719 60.070312 50.175781 60.1875 C 50.460938 60.304688 50.714844 60.476562 50.933594 60.695312 L 52.589844 62.351562 L 59.222656 55.722656 C 59.441406 55.503906 59.695312 55.335938 59.980469 55.214844 C 60.269531 55.097656 60.566406 55.039062 60.878906 55.039062 C 61.1875 55.039062 61.488281 55.097656 61.773438 55.214844 C 62.0625 55.335938 62.316406 55.503906 62.535156 55.722656 C 62.753906 55.945312 62.921875 56.195312 63.042969 56.484375 C 63.160156 56.769531 63.21875 57.070312 63.21875 57.378906 C 63.21875 57.691406 63.160156 57.988281 63.042969 58.277344 C 62.925781 58.5625 62.753906 58.816406 62.535156 59.039062 L 54.25 67.324219 C 53.792969 67.78125 53.238281 68.011719 52.589844 68.011719 Z M 52.589844 68.011719 " fill-opacity="1" fill-rule="nonzero"/></svg>