<svg xmlns="http://www.w3.org/2000/svg" xmlns:xlink="http://www.w3.org/1999/xlink" width="40" zoomAndPan="magnify" viewBox="0 0 30 30.000001" height="40" preserveAspectRatio="xMidYMid meet" version="1.0"><defs><clipPath id="1db10121a3"><path d="M 0.484375 0 L 29.515625 0 L 29.515625 29.03125 L 0.484375 29.03125 Z M 0.484375 0 " clip-rule="nonzero"/></clipPath></defs><g clip-path="url(#1db10121a3)"><path fill="#000000" d="M 15 0 C 23.019531 0 29.515625 6.503906 29.515625 14.515625 C 29.515625 21.777344 23.011719 29.03125 15 29.03125 C 6.988281 29.03125 0.484375 22.535156 0.484375 14.515625 C 0.484375 6.496094 6.988281 0 15 0 Z M 15 0 " fill-opacity="1" fill-rule="nonzero"/></g><path fill="#ffffff" d="M 15.207031 11.171875 L 21.183594 14.628906 L 15.207031 4.828125 Z M 15.207031 11.171875 " fill-opacity="1" fill-rule="nonzero"/><path fill="#ffffff" d="M 14.800781 11.171875 L 14.800781 4.828125 L 8.816406 14.628906 Z M 14.800781 11.171875 " fill-opacity="1" fill-rule="nonzero"/><path fill="#ffffff" d="M 15.207031 24.210938 L 21.1875 15.957031 L 15.207031 19.480469 Z M 15.207031 24.210938 " fill-opacity="1" fill-rule="nonzero"/><path fill="#ffffff" d="M 8.816406 15.957031 L 14.800781 24.210938 L 14.800781 19.480469 Z M 8.816406 15.957031 " fill-opacity="1" fill-rule="nonzero"/><path fill="#ffffff" d="M 15.207031 11.609375 L 15.207031 18.527344 L 20.402344 15.523438 L 21.1875 15.070312 L 21.183594 15.070312 Z M 15.207031 11.609375 " fill-opacity="1" fill-rule="nonzero"/><path fill="#ffffff" d="M 14.800781 18.527344 L 14.800781 11.609375 L 8.816406 15.070312 L 10.085938 15.804688 Z M 14.800781 18.527344 " fill-opacity="1" fill-rule="nonzero"/></svg>