<svg xmlns="http://www.w3.org/2000/svg" xmlns:xlink="http://www.w3.org/1999/xlink" width="40" zoomAndPan="magnify" viewBox="0 0 30 30.000001" height="40" preserveAspectRatio="xMidYMid meet" version="1.0"><defs><clipPath id="1f284455ba"><path d="M 0.484375 0 L 29.515625 0 L 29.515625 29.03125 L 0.484375 29.03125 Z M 0.484375 0 " clip-rule="nonzero"/></clipPath></defs><g clip-path="url(#1f284455ba)"><path fill="#797979" d="M 15 0 C 6.984375 0 0.484375 6.5 0.484375 14.515625 C 0.484375 22.535156 6.984375 29.03125 15 29.03125 C 23.015625 29.03125 29.515625 22.535156 29.515625 14.515625 C 29.515625 6.5 23.015625 0 15 0 Z M 17.773438 23.070312 C 17.328125 23.15625 17.171875 22.882812 17.171875 22.648438 C 17.171875 22.359375 17.183594 21.414062 17.183594 20.238281 C 17.183594 19.417969 16.902344 18.882812 16.589844 18.609375 C 18.539062 18.394531 20.585938 17.648438 20.585938 14.273438 C 20.585938 13.3125 20.246094 12.527344 19.6875 11.914062 C 19.777344 11.691406 20.078125 10.796875 19.597656 9.589844 C 19.597656 9.589844 18.867188 9.351562 17.195312 10.492188 C 16.492188 10.296875 15.746094 10.199219 15 10.195312 C 14.257812 10.199219 13.507812 10.296875 12.808594 10.492188 C 11.136719 9.355469 10.402344 9.589844 10.402344 9.589844 C 9.925781 10.800781 10.226562 11.691406 10.316406 11.914062 C 9.757812 12.527344 9.414062 13.3125 9.414062 14.273438 C 9.414062 17.640625 11.460938 18.394531 13.402344 18.617188 C 13.152344 18.835938 12.925781 19.222656 12.847656 19.792969 C 12.347656 20.015625 11.082031 20.402344 10.300781 19.0625 C 10.300781 19.0625 9.839844 18.21875 8.960938 18.15625 C 8.960938 18.15625 8.105469 18.144531 8.898438 18.691406 C 8.898438 18.691406 9.472656 18.960938 9.871094 19.976562 C 9.871094 19.976562 10.386719 21.6875 12.820312 21.15625 C 12.824219 21.886719 12.832031 22.441406 12.832031 22.648438 C 12.832031 22.882812 12.671875 23.152344 12.234375 23.074219 C 8.753906 21.910156 6.246094 18.617188 6.246094 14.734375 C 6.246094 9.878906 10.167969 5.945312 15 5.945312 C 19.835938 5.945312 23.757812 9.878906 23.757812 14.734375 C 23.757812 18.617188 21.25 21.90625 17.773438 23.070312 Z M 17.773438 23.070312 " fill-opacity="1" fill-rule="nonzero"/></g></svg>