<svg xmlns="http://www.w3.org/2000/svg" xmlns:xlink="http://www.w3.org/1999/xlink" width="40" zoomAndPan="magnify" viewBox="0 0 30 30.000001" height="40" preserveAspectRatio="xMidYMid meet" version="1.0"><defs><clipPath id="14e5c916ce"><path d="M 0.484375 2 L 29.515625 2 L 29.515625 27.273438 L 0.484375 27.273438 Z M 0.484375 2 " clip-rule="nonzero"/></clipPath></defs><g clip-path="url(#14e5c916ce)"><path fill="#9105ff" d="M 13.496094 11.175781 C 14.789062 10.339844 16.636719 10.078125 16.148438 8.160156 C 16.117188 6.96875 16.3125 6.269531 15.082031 5.597656 C 13.234375 4.546875 11.394531 3.476562 9.574219 2.371094 C 8.820312 1.910156 8.125 1.867188 7.363281 2.308594 C 5.410156 3.4375 3.449219 4.542969 1.492188 5.667969 C 0.855469 6.03125 0.511719 6.554688 0.523438 7.335938 C 0.550781 9.558594 0.582031 11.78125 0.519531 14.003906 C 0.492188 14.980469 0.882812 15.578125 1.671875 16.019531 C 3.582031 17.09375 5.492188 18.164062 7.386719 19.261719 C 8.066406 19.65625 8.707031 19.679688 9.378906 19.292969 C 13.03125 17.199219 16.667969 15.070312 20.324219 12.984375 C 21.152344 12.515625 21.980469 12.570312 22.804688 13.074219 C 27.515625 15.710938 26.519531 14.867188 26.628906 20.085938 C 26.726562 22.058594 24.035156 22.585938 22.734375 23.613281 C 21.832031 24.175781 20.972656 24.105469 20.09375 23.578125 C 17.621094 21.953125 15.792969 22.144531 16.328125 18.542969 C 16.355469 18.144531 16.183594 18.007812 15.832031 18.207031 C 15.183594 18.574219 14.542969 18.957031 13.90625 19.34375 C 13.804688 19.40625 13.671875 19.53125 13.671875 19.625 C 13.699219 20.640625 13.699219 21.664062 13.824219 22.667969 C 13.859375 22.949219 14.246094 23.25 14.539062 23.421875 C 16.464844 24.550781 18.429688 25.621094 20.347656 26.765625 C 21.1875 27.269531 21.933594 27.203125 22.738281 26.734375 C 24.519531 25.695312 26.304688 24.652344 28.117188 23.664062 C 29.042969 23.15625 29.453125 22.457031 29.433594 21.394531 C 29.394531 19.453125 29.371094 17.503906 29.457031 15.5625 C 29.507812 14.339844 29.085938 13.554688 28.011719 12.980469 C 26.195312 12.003906 24.421875 10.945312 22.640625 9.902344 C 21.875 9.457031 21.140625 9.402344 20.355469 9.867188 C 16.777344 11.964844 13.179688 14.03125 9.609375 16.144531 C 8.75 16.652344 7.980469 16.625 7.15625 16.121094 C 2.550781 13.359375 3.101562 14.453125 3.164062 9.011719 C 3.148438 8.140625 3.523438 7.558594 4.257812 7.144531 C 6.015625 6.328125 7.804688 4.203125 9.816406 5.628906 C 13.125 7.898438 13.679688 6.5625 13.496094 11.175781 Z M 13.496094 11.175781 " fill-opacity="1" fill-rule="nonzero"/><path fill="#9105ff" d="M 13.496094 11.175781 C 13.6875 6.566406 13.105469 7.886719 9.816406 5.628906 C 7.804688 4.203125 6.019531 6.332031 4.257812 7.144531 C 3.523438 7.558594 3.148438 8.140625 3.164062 9.011719 C 3.101562 14.433594 2.550781 13.367188 7.15625 16.121094 C 7.980469 16.625 8.75 16.652344 9.609375 16.144531 C 13.179688 14.03125 16.777344 11.964844 20.355469 9.867188 C 21.140625 9.402344 21.875 9.457031 22.640625 9.902344 C 24.421875 10.945312 26.195312 12.003906 28.011719 12.980469 C 29.085938 13.554688 29.507812 14.339844 29.457031 15.5625 C 29.371094 17.503906 29.394531 19.453125 29.433594 21.398438 C 29.453125 22.457031 29.042969 23.15625 28.117188 23.664062 C 26.304688 24.652344 24.519531 25.695312 22.738281 26.734375 C 21.933594 27.203125 21.1875 27.269531 20.347656 26.765625 C 18.429688 25.621094 16.464844 24.550781 14.539062 23.421875 C 14.246094 23.25 13.859375 22.949219 13.824219 22.667969 C 13.699219 21.664062 13.699219 20.640625 13.671875 19.625 C 13.671875 19.53125 13.804688 19.40625 13.90625 19.34375 C 14.542969 18.957031 15.183594 18.574219 15.832031 18.207031 C 16.183594 18.007812 16.355469 18.144531 16.328125 18.542969 C 15.789062 22.140625 17.628906 21.960938 20.09375 23.578125 C 20.972656 24.105469 21.832031 24.175781 22.734375 23.613281 C 24.039062 22.589844 26.730469 22.054688 26.628906 20.085938 C 26.519531 14.890625 27.515625 15.703125 22.804688 13.074219 C 21.980469 12.570312 21.152344 12.515625 20.324219 12.984375 C 16.667969 15.070312 13.03125 17.199219 9.378906 19.292969 C 8.710938 19.679688 8.066406 19.65625 7.386719 19.261719 C 5.492188 18.164062 3.582031 17.09375 1.671875 16.019531 C 0.882812 15.574219 0.492188 14.980469 0.519531 14.003906 C 0.582031 11.78125 0.550781 9.558594 0.523438 7.335938 C 0.511719 6.554688 0.855469 6.03125 1.492188 5.667969 C 3.449219 4.542969 5.410156 3.4375 7.363281 2.308594 C 8.125 1.867188 8.820312 1.910156 9.574219 2.371094 C 11.394531 3.476562 13.234375 4.546875 15.082031 5.601562 C 16.308594 6.269531 16.117188 6.964844 16.148438 8.160156 C 16.636719 10.074219 14.789062 10.339844 13.496094 11.175781 Z M 13.496094 11.175781 " fill-opacity="1" fill-rule="nonzero"/></g></svg>