<svg xmlns="http://www.w3.org/2000/svg" xmlns:xlink="http://www.w3.org/1999/xlink" width="100" zoomAndPan="magnify" viewBox="0 0 75 74.999997" height="100" preserveAspectRatio="xMidYMid meet" version="1.0"><defs><clipPath id="828438ba0b"><path d="M 15 30 L 75 30 L 75 69.996094 L 15 69.996094 Z M 15 30 " clip-rule="nonzero"/></clipPath></defs><path fill="#797979" d="M 24.203125 10.417969 C 24.203125 10.417969 23.816406 8.058594 20.828125 6.640625 C 20.828125 6.640625 19.414062 5.992188 21.878906 5.707031 C 21.878906 5.707031 27.46875 5.160156 31.128906 8.078125 C 31.128906 8.078125 43.628906 4.992188 53.882812 13.449219 C 53.882812 13.449219 55.546875 14.707031 56.464844 17.578125 C 56.464844 17.578125 58.757812 18.308594 59.601562 19.65625 C 59.601562 19.65625 60.394531 20.769531 59.164062 20.40625 C 59.164062 20.40625 59.960938 21.359375 57.832031 21.160156 C 57.832031 21.160156 48.296875 21.9375 43.558594 20.539062 C 43.558594 20.539062 44.097656 26.097656 37.859375 27.59375 C 37.859375 27.59375 34.359375 28.363281 36.5625 25.90625 C 36.5625 25.90625 38.742188 23.007812 37.042969 20.804688 C 37.042969 20.804688 27.421875 20.660156 20.46875 26.566406 C 20.46875 26.566406 13.335938 33.085938 12.332031 37.539062 C 12.332031 37.539062 15.796875 38.738281 15.519531 43.671875 C 15.519531 43.671875 15.628906 46.242188 14.085938 44.003906 C 14.085938 44.003906 13.09375 41.675781 9.46875 41.539062 C 9.46875 41.539062 4.523438 41.179688 1.609375 43.394531 C 1.609375 43.394531 -1.070312 45.027344 0.449219 42.605469 C 0.449219 42.605469 2.699219 38.269531 9.0625 36.84375 C 9.0625 36.839844 9.925781 18.558594 24.203125 10.417969 Z M 24.203125 10.417969 " fill-opacity="1" fill-rule="nonzero"/><g clip-path="url(#828438ba0b)"><path fill="#797979" d="M 50.789062 64.570312 C 50.789062 64.570312 51.175781 66.929688 54.164062 68.347656 C 54.164062 68.347656 55.582031 68.996094 53.117188 69.28125 C 53.117188 69.28125 47.523438 69.832031 43.867188 66.914062 C 43.867188 66.914062 31.363281 69.996094 21.113281 61.539062 C 21.113281 61.539062 19.445312 60.28125 18.53125 57.410156 C 18.53125 57.410156 16.238281 56.679688 15.390625 55.332031 C 15.390625 55.332031 14.597656 54.21875 15.828125 54.582031 C 15.828125 54.582031 15.035156 53.628906 17.164062 53.828125 C 17.164062 53.828125 26.695312 53.050781 31.433594 54.449219 C 31.433594 54.449219 30.898438 48.890625 37.136719 47.394531 C 37.136719 47.394531 40.632812 46.625 38.429688 49.082031 C 38.429688 49.082031 36.25 51.980469 37.949219 54.183594 C 37.949219 54.183594 47.574219 54.328125 54.523438 48.421875 C 54.523438 48.421875 61.660156 41.902344 62.660156 37.449219 C 62.660156 37.449219 59.199219 36.25 59.472656 31.316406 C 59.472656 31.316406 59.363281 28.746094 60.90625 30.984375 C 60.90625 30.984375 61.902344 33.3125 65.527344 33.449219 C 65.527344 33.449219 70.46875 33.8125 73.382812 31.597656 C 73.382812 31.597656 76.0625 29.960938 74.546875 32.382812 C 74.546875 32.382812 72.292969 36.71875 65.929688 38.144531 C 65.929688 38.148438 65.066406 56.429688 50.789062 64.570312 Z M 50.789062 64.570312 " fill-opacity="1" fill-rule="nonzero"/></g></svg>