<svg xmlns="http://www.w3.org/2000/svg" xmlns:xlink="http://www.w3.org/1999/xlink" width="100" zoomAndPan="magnify" viewBox="0 0 75 74.999997" height="100" preserveAspectRatio="xMidYMid meet" version="1.0"><defs><clipPath id="a74b5f0db6"><path d="M 0 2.007812 L 74.996094 2.007812 L 74.996094 73.179688 L 0 73.179688 Z M 0 2.007812 " clip-rule="nonzero"/></clipPath></defs><path fill="#797979" d="M 15.484375 33.976562 C 17.070312 34.804688 18.46875 36.519531 19.15625 38.980469 C 20.953125 45.460938 22.550781 44.75 24.164062 40.773438 C 25.78125 36.996094 26.957031 29.308594 31.476562 28.578125 C 39.265625 27.320312 48.96875 52.683594 52.199219 52.015625 C 53.816406 51.804688 54.121094 48.65625 54.035156 44.625 C 53.945312 40.542969 53.03125 35.191406 52.515625 30.203125 C 51.542969 20.839844 52.382812 13.730469 56.21875 8.789062 C 51.671875 6.511719 46.539062 5.230469 41.113281 5.230469 C 24.363281 5.230469 10.453125 17.414062 7.714844 33.425781 C 10.289062 32.804688 13.125 32.695312 15.484375 33.976562 " fill-opacity="1" fill-rule="nonzero"/><g clip-path="url(#a74b5f0db6)"><path fill="#797979" d="M 64.035156 14.1875 C 64.386719 5.386719 67.28125 1.992188 67.285156 2.007812 L 67.28125 2.007812 C 67.109375 2.117188 57.765625 9.789062 60.890625 38.300781 C 61.808594 46.671875 61.945312 60.671875 60.800781 63.648438 C 59.652344 66.667969 55.734375 67.332031 53.34375 65.234375 C 48.5625 61.089844 41.785156 48.183594 34.960938 37.164062 C 30.972656 31.191406 30.429688 36.222656 28.707031 40.882812 C 26.898438 45.765625 24.972656 52.453125 20.328125 49.898438 C 16.445312 47.761719 16.113281 43.121094 14.382812 39.75 C 12.488281 36.046875 7.308594 34.605469 0 37.421875 C 2.855469 37.171875 5.28125 37.390625 7.25 37.96875 C 7.234375 38.378906 7.226562 38.792969 7.226562 39.207031 C 7.226562 57.96875 22.398438 73.179688 41.113281 73.179688 C 59.824219 73.179688 74.996094 57.96875 74.996094 39.207031 C 74.996094 29.304688 70.773438 20.398438 64.035156 14.1875 " fill-opacity="1" fill-rule="nonzero"/></g></svg>