<svg xmlns="http://www.w3.org/2000/svg" xmlns:xlink="http://www.w3.org/1999/xlink" width="40" zoomAndPan="magnify" viewBox="0 0 30 30.000001" height="40" preserveAspectRatio="xMidYMid meet" version="1.0"><defs><clipPath id="e3baa416d5"><path d="M 0.484375 0 L 29.515625 0 L 29.515625 29.03125 L 0.484375 29.03125 Z M 0.484375 0 " clip-rule="nonzero"/></clipPath></defs><g clip-path="url(#e3baa416d5)"><path fill="#797979" d="M 15 0 C 6.984375 0 0.484375 6.5 0.484375 14.515625 C 0.484375 22.53125 6.984375 29.03125 15 29.03125 C 23.015625 29.03125 29.515625 22.53125 29.515625 14.515625 C 29.515625 6.5 23.015625 0 15 0 Z M 22.601562 21.289062 C 22.601562 22.433594 21.671875 23.363281 20.527344 23.363281 L 9.472656 23.363281 C 8.328125 23.363281 7.398438 22.433594 7.398438 21.289062 L 7.398438 7.742188 C 7.398438 6.597656 8.328125 5.671875 9.472656 5.671875 L 15 5.671875 C 16.144531 5.671875 17.074219 6.597656 17.074219 7.742188 L 17.074219 9.125 C 17.074219 10.269531 18 11.199219 19.144531 11.199219 L 20.527344 11.199219 C 21.671875 11.199219 22.601562 12.128906 22.601562 13.273438 Z M 22.601562 21.289062 " fill-opacity="1" fill-rule="nonzero"/></g><path fill="#797979" d="M 18.800781 14.378906 L 11.199219 14.378906 C 10.625 14.378906 10.164062 14.84375 10.164062 15.414062 C 10.164062 15.988281 10.625 16.449219 11.199219 16.449219 L 18.800781 16.449219 C 19.375 16.449219 19.835938 15.988281 19.835938 15.414062 C 19.835938 14.84375 19.375 14.378906 18.800781 14.378906 Z M 18.800781 14.378906 " fill-opacity="1" fill-rule="nonzero"/><path fill="#797979" d="M 18.800781 18.523438 L 11.199219 18.523438 C 10.625 18.523438 10.164062 18.988281 10.164062 19.5625 C 10.164062 20.132812 10.625 20.597656 11.199219 20.597656 L 18.800781 20.597656 C 19.375 20.597656 19.835938 20.132812 19.835938 19.5625 C 19.835938 18.988281 19.375 18.523438 18.800781 18.523438 Z M 18.800781 18.523438 " fill-opacity="1" fill-rule="nonzero"/></svg>