<svg xmlns="http://www.w3.org/2000/svg" xmlns:xlink="http://www.w3.org/1999/xlink" width="100" zoomAndPan="magnify" viewBox="0 0 75 74.999997" height="100" preserveAspectRatio="xMidYMid meet" version="1.0"><path fill="#212326" d="M 37.480469 0 C 16.761719 0 0 16.78125 0 37.5 C 0 58.21875 16.761719 75 37.480469 75 C 58.199219 75 75 58.21875 75 37.5 C 75 16.78125 58.199219 0 37.480469 0 Z M 63.449219 22.5 L 52.386719 22.5 C 51.167969 17.8125 49.460938 13.3125 47.210938 9.148438 C 54.113281 11.511719 59.851562 16.292969 63.449219 22.5 Z M 37.5 7.632812 C 40.632812 12.132812 43.070312 17.136719 44.664062 22.5 L 30.335938 22.5 C 31.929688 17.136719 34.367188 12.132812 37.5 7.632812 Z M 8.476562 45 C 7.855469 42.601562 7.5 40.085938 7.5 37.5 C 7.5 34.914062 7.855469 32.398438 8.476562 30 L 21.132812 30 C 20.832031 32.457031 20.625 34.949219 20.625 37.5 C 20.625 40.050781 20.832031 42.542969 21.148438 45 Z M 11.53125 52.5 L 22.59375 52.5 C 23.8125 57.1875 25.519531 61.6875 27.769531 65.867188 C 20.867188 63.507812 15.132812 58.707031 11.53125 52.5 Z M 22.59375 22.5 L 11.53125 22.5 C 15.132812 16.292969 20.867188 11.492188 27.769531 9.132812 C 25.519531 13.3125 23.8125 17.8125 22.59375 22.5 Z M 37.5 67.367188 C 34.386719 62.867188 31.949219 57.863281 30.335938 52.5 L 44.664062 52.5 C 43.050781 57.863281 40.613281 62.867188 37.5 67.367188 Z M 46.273438 45 L 28.726562 45 C 28.367188 42.542969 28.125 40.050781 28.125 37.5 C 28.125 34.949219 28.367188 32.457031 28.726562 30 L 46.273438 30 C 46.632812 32.457031 46.875 34.949219 46.875 37.5 C 46.875 40.050781 46.632812 42.542969 46.273438 45 Z M 47.230469 65.851562 C 49.480469 61.667969 51.1875 57.1875 52.40625 52.5 L 63.46875 52.5 C 59.851562 58.707031 54.113281 63.488281 47.230469 65.851562 Z M 53.851562 45 C 54.148438 42.542969 54.375 40.050781 54.375 37.5 C 54.375 34.949219 54.167969 32.457031 53.851562 30 L 66.507812 30 C 67.125 32.398438 67.5 34.914062 67.5 37.5 C 67.5 40.085938 67.144531 42.601562 66.507812 45 Z M 53.851562 45 " fill-opacity="1" fill-rule="nonzero"/></svg>